<svg width="32.5" height="36" xmlns="http://www.w3.org/2000/svg" xmlns:xlink="http://www.w3.org/1999/xlink" version="1.1" enable-background="new 0 0 133.1473083 38.6045341" xml:space="preserve">
 <g>
  <title>Layer 1</title>
  <g id="svg_24">
   <defs transform="translate(0.0695888 -0.0695888) translate(-0.208766 0) translate(0.0695888 0) translate(0.139178 0) translate(0.208766 0) translate(0.139178 0.278355) translate(-1.39178 0.139178) translate(0.695888 0) translate(-2.15827 0.28777) translate(2.44604 -0.431655)">
    <rect id="SVGID_7_" x="0.013" y="0.00028" width="133.134" height="38.604"/>
   </defs>
   <clipPath id="SVGID_8_" transform="translate(0.0695888 -0.0695888) translate(-0.208766 0) translate(0.0695888 0) translate(0.139178 0) translate(0.208766 0) translate(0.139178 0.278355) translate(-1.39178 0.139178) translate(0.695888 0) translate(-2.15827 0.28777) translate(2.44604 -0.431655)">
    <use xlink:href="#SVGID_7_" overflow="visible" id="svg_25" y="0.20406" x="0.00941"/>
   </clipPath>
   <path clip-path="url(#SVGID_8_)" fill="#006CAB" d="m4.29861,12.56018c0,0.65002 -0.07,5.67004 3.074,10.85803c2.826,4.68598 7.034,6.74799 8.828,7.39801c1.813,-0.65002 6.019,-2.71203 8.843,-7.39801c3.149,-5.18799 3.074,-10.20801 3.074,-10.85803l0,-12.211l-23.819,-0.00098l0,12.21198z" id="svg_26"/>
   <path clip-path="url(#SVGID_8_)" fill="#006CAB" d="m29.54241,18.29925l-0.116,0.39405c-0.139,0.46997 -0.294,0.92596 -0.45601,1.36401l-1.02699,-0.92303l-0.125,0.37201c-0.549,1.61999 -1.26,3.14599 -2.121,4.52197c-2.236,3.58105 -5.397,6.19403 -9.114,7.552c0,0 -0.268,0.09399 -0.383,0.13605c-0.106,-0.04206 -0.37,-0.13605 -0.37,-0.13605c-3.715,-1.362 -6.871,-3.97095 -9.109,-7.552c-0.86,-1.36896 -1.582,-2.89496 -2.121,-4.52197l-0.126,-0.37201l-0.297,0.26098l-0.726,0.65601c-0.16,-0.43799 -0.318,-0.88696 -0.459,-1.35797l-0.114,-0.39203l-0.302,0.27398l-2.566,2.31501l0.047,0.15503c0.607,1.96002 1.61,3.96997 2.355,5.30798l0.15,0.28101l1.066,-0.95398c0.04,0.07196 0.074,0.14898 0.118,0.21698c2.658,4.24798 6.421,7.35101 10.882,8.98303l1.572,0.578l1.593,-0.578c4.461,-1.63202 8.215,-4.73505 10.874,-8.98004c0.042,-0.068 0.08199,-0.14801 0.12399,-0.21796l1.05101,0.95197l0.16,-0.28101c0.741,-1.32501 1.741,-3.32098 2.353,-5.31l0.048,-0.15301l-2.861,-2.59101z" id="svg_27"/>
  </g>
  <g id="svg_28">
   <defs transform="translate(0.0695888 -0.0695888) translate(-0.208766 0) translate(0.0695888 0) translate(0.139178 0) translate(0.208766 0) translate(0.139178 0.278355) translate(-1.39178 0.139178) translate(0.695888 0) translate(-2.15827 0.28777) translate(2.44604 -0.431655)">
    <rect id="SVGID_9_" y="0.00028" width="133.147" height="38.604"/>
   </defs>
   <clipPath id="SVGID_10_" transform="translate(0.0695888 -0.0695888) translate(-0.208766 0) translate(0.0695888 0) translate(0.139178 0) translate(0.208766 0) translate(0.139178 0.278355) translate(-1.39178 0.139178) translate(0.695888 0) translate(-2.15827 0.28777) translate(2.44604 -0.431655)">
    <use xlink:href="#SVGID_9_" overflow="visible" id="svg_29" y="0.20406" x="0.00941"/>
   </clipPath>
   <path clip-path="url(#SVGID_10_)" fill="#FFFFFF" d="m26.11751,5.71527c0,0.16803 -0.041,0.33405 -0.111,0.47406c-0.038,0.08698 -0.101,0.16596 -0.174,0.23798c-0.102,0.044 -0.199,0.10199 -0.284,0.17498c-0.006,-0.039 -0.013,-0.08197 -0.013,-0.11798c0,-0.17401 0.037,-0.33203 0.116,-0.47601c0.097,-0.19098 0.263,-0.33301 0.448,-0.43799c0.007,0.047 0.018,0.09699 0.018,0.14496" id="svg_30"/>
   <path clip-path="url(#SVGID_10_)" fill="#FFFFFF" d="m24.18161,8.94287l0,0c0.208,-0.02997 0.419,0.013 0.604,0.10901c-0.147,0.15503 -0.333,0.26001 -0.543,0.29199c-0.21,0.03101 -0.426,-0.01495 -0.629,-0.10699c0.168,-0.15296 0.356,-0.263 0.568,-0.29401" id="svg_31"/>
   <path clip-path="url(#SVGID_10_)" fill="#FFFFFF" d="m23.15801,9.26428c-0.001,-0.01599 -0.004,-0.03094 -0.004,-0.047c0,-0.19897 0.053,-0.38494 0.154,-0.54394l0.003,-0.00104c0.107,-0.16998 0.262,-0.294 0.461,-0.38c0.003,0.01904 0.006,0.039 0.006,0.057c0,0.19501 -0.052,0.37 -0.151,0.529c-0.1,0.18103 -0.266,0.30401 -0.469,0.38598" id="svg_32"/>
   <path clip-path="url(#SVGID_10_)" fill="#FFFFFF" d="m23.94591,8.15716c0.071,-0.12396 0.174,-0.22998 0.298,-0.32495c0.025,0.09497 0.06,0.19098 0.06,0.28199c0,0.10797 -0.017,0.21301 -0.051,0.315c-0.048,0.14099 -0.137,0.25897 -0.253,0.36902c-0.04,0.01196 -0.085,0.02795 -0.129,0.04498c-0.001,-0.00903 -0.005,-0.01801 -0.006,-0.02801c0.085,-0.19697 0.112,-0.42096 0.081,-0.65803" id="svg_33"/>
   <path clip-path="url(#SVGID_10_)" fill="#FFFFFF" d="m24.39321,7.65124c0.042,-0.14099 0.118,-0.26898 0.22,-0.39196c0.09,0.16101 0.146,0.32898 0.146,0.50403c0,0.02496 0,0.05297 -0.003,0.07995c-0.01,0.15003 -0.066,0.28504 -0.151,0.41803c-0.044,0.02301 -0.086,0.04999 -0.125,0.07898c-0.004,-0.008 -0.009,-0.01697 -0.012,-0.02502c0.038,-0.21796 0.014,-0.43897 -0.075,-0.66401" id="svg_34"/>
   <path clip-path="url(#SVGID_10_)" fill="#FFFFFF" d="m24.70821,7.04669c0.007,-0.14697 0.048,-0.284 0.102,-0.42395c0.149,0.15601 0.255,0.33399 0.285,0.53296c0.005,0.04602 0.008,0.091 0.008,0.13605c0,0.104 -0.022,0.20196 -0.058,0.30298c-0.036,0.03497 -0.07,0.06897 -0.101,0.10699c-0.008,-0.008 -0.014,-0.01599 -0.018,-0.02502c-0.019,-0.21997 -0.096,-0.43 -0.218,-0.63001" id="svg_35"/>
   <path clip-path="url(#SVGID_10_)" fill="#FFFFFF" d="m24.85721,6.38995c-0.014,-0.06799 -0.023,-0.13397 -0.023,-0.20294c0,-0.07001 0.023,-0.15002 0.041,-0.22803c0.179,0.12 0.324,0.26203 0.399,0.44599c0.048,0.11999 0.07,0.24798 0.07,0.37298c0,0.02002 -0.005,0.03803 -0.006,0.05805c-0.032,0.04297 -0.056,0.08801 -0.08,0.13501c-0.009,-0.00702 -0.017,-0.01203 -0.025,-0.02002c-0.067,-0.20099 -0.193,-0.396 -0.376,-0.56104" id="svg_36"/>
   <path clip-path="url(#SVGID_10_)" fill="#FFFFFF" d="m24.86991,5.72876c-0.065,-0.13794 -0.094,-0.27899 -0.095,-0.44196c0.2,0.07697 0.379,0.19397 0.497,0.35102c0.085,0.11798 0.139,0.25598 0.164,0.40899c-0.018,0.04798 -0.033,0.09699 -0.044,0.14496c-0.012,-0.00299 -0.02,-0.00598 -0.031,-0.00897c-0.112,-0.185 -0.283,-0.34503 -0.491,-0.45404" id="svg_37"/>
   <path clip-path="url(#SVGID_10_)" fill="#FFFFFF" d="m25.33701,5.40265c-0.013,-0.00098 -0.025,-0.00299 -0.038,-0.00598c-0.15,-0.15198 -0.345,-0.26599 -0.562,-0.33002c-0.09,-0.11298 -0.15,-0.24597 -0.191,-0.396c0.212,0.02503 0.394,0.09204 0.545,0.22303c0.111,0.09198 0.195,0.22302 0.254,0.36999c-0.006,0.04602 -0.008,0.09302 -0.008,0.13898" id="svg_38"/>
   <path clip-path="url(#SVGID_10_)" fill="#FFFFFF" d="m25.07661,4.65839c-0.187,-0.12098 -0.391,-0.18598 -0.637,-0.193c-0.117,-0.09594 -0.211,-0.21295 -0.291,-0.354c0.218,-0.02295 0.423,0.00806 0.607,0.10101c0.119,0.07001 0.229,0.16699 0.315,0.29505c0.006,0.04797 0.016,0.09796 0.027,0.14794c-0.006,0.00104 -0.014,0.00104 -0.021,0.003" id="svg_39"/>
   <path clip-path="url(#SVGID_10_)" fill="#FFFFFF" d="m24.66641,8.79864c-0.105,-0.02996 -0.214,-0.04797 -0.319,-0.04895c0.119,-0.16803 0.272,-0.30999 0.44,-0.38702c0.198,-0.08002 0.414,-0.08398 0.632,-0.03802c-0.122,0.18701 -0.276,0.33105 -0.474,0.406c-0.096,0.04004 -0.182,0.06104 -0.279,0.06799" id="svg_40"/>
   <path clip-path="url(#SVGID_10_)" fill="#FFFFFF" d="m25.23821,8.10699c-0.112,-0.00494 -0.223,0.00306 -0.331,0.02704c0.078,-0.19201 0.193,-0.36798 0.358,-0.48401l0,-0.00201c0.168,-0.12299 0.38,-0.185 0.608,-0.19098c-0.078,0.21802 -0.197,0.40497 -0.367,0.526c-0.083,0.05298 -0.173,0.09302 -0.268,0.12396" id="svg_41"/>
   <path clip-path="url(#SVGID_10_)" fill="#FFFFFF" d="m25.86491,7.11676c-0.066,0.07703 -0.147,0.14105 -0.235,0.19202c-0.107,0.02099 -0.21,0.05304 -0.305,0.09698c0.027,-0.20599 0.096,-0.40198 0.228,-0.56195c0.137,-0.15002 0.332,-0.25201 0.531,-0.30902c-0.025,0.224 -0.083,0.422 -0.219,0.58197" id="svg_42"/>
   <path clip-path="url(#SVGID_10_)" fill="#FFFFFF" d="m25.97341,5.02405c0,0.08001 -0.01,0.16003 -0.028,0.23706c-0.022,0.09698 -0.066,0.18896 -0.122,0.27197c-0.088,0.06403 -0.167,0.14197 -0.233,0.232c-0.045,-0.12403 -0.077,-0.24 -0.077,-0.36298c0,-0.08099 0.012,-0.16205 0.032,-0.24103c0.051,-0.20502 0.178,-0.37799 0.345,-0.531c0.05,0.13501 0.083,0.26898 0.083,0.39398" id="svg_43"/>
   <path clip-path="url(#SVGID_10_)" fill="#FFFFFF" d="m25.24271,4.35998c0,-0.19995 0.083,-0.40094 0.208,-0.58996c0.125,0.18402 0.204,0.38702 0.204,0.59399l0,0.00403c0,0.09998 -0.023,0.198 -0.054,0.29297c-0.07,0.08502 -0.126,0.17902 -0.171,0.27301c-0.114,-0.17401 -0.187,-0.36401 -0.187,-0.565l0,-0.00904z" id="svg_44"/>
   <path clip-path="url(#SVGID_10_)" fill="#FFFFFF" d="m24.82111,3.03436c0.167,0.14801 0.293,0.32703 0.341,0.53302c0.016,0.073 0.027,0.14398 0.027,0.21698c0,0.02204 -0.004,0.04401 -0.006,0.06403c-0.049,0.10602 -0.088,0.21399 -0.107,0.32397c-0.15,-0.14697 -0.27,-0.31897 -0.306,-0.50696c-0.012,-0.07501 -0.018,-0.15301 -0.018,-0.22802c0,-0.13501 0.023,-0.27301 0.069,-0.40302" id="svg_45"/>
   <path clip-path="url(#SVGID_10_)" fill="#FFFFFF" d="m24.70291,3.97436c-0.007,0.00306 -0.018,0.00501 -0.029,0.00806c-0.211,-0.073 -0.441,-0.08704 -0.677,-0.04004c-0.132,-0.06396 -0.255,-0.15997 -0.359,-0.27197c0.208,-0.07501 0.419,-0.09204 0.615,-0.04504c0.144,0.03802 0.273,0.10803 0.389,0.21002c0.019,0.04699 0.041,0.09503 0.061,0.13897" id="svg_46"/>
   <path clip-path="url(#SVGID_10_)" fill="#FFFFFF" d="m24.05421,2.46539c0.199,0.10504 0.362,0.24903 0.457,0.44306c0.043,0.08496 0.07,0.17297 0.089,0.26397c-0.024,0.11298 -0.034,0.22498 -0.029,0.34003c-0.184,-0.11005 -0.339,-0.24902 -0.435,-0.42505c-0.068,-0.13898 -0.101,-0.29596 -0.101,-0.46197c0,-0.055 0.013,-0.10901 0.019,-0.16004" id="svg_47"/>
   <path clip-path="url(#SVGID_10_)" fill="#FFFFFF" d="m23.82371,2.87317c0.022,0.018 0.042,0.03705 0.064,0.05701c0.022,0.083 0.047,0.15899 0.086,0.23504l0,0.00195c0.04,0.07703 0.092,0.14905 0.149,0.21802c-0.198,-0.01397 -0.382,-0.073 -0.538,-0.18097c-0.161,-0.12304 -0.28,-0.30603 -0.357,-0.51904c0.229,0.00201 0.421,0.06604 0.596,0.18799" id="svg_48"/>
   <path clip-path="url(#SVGID_10_)" fill="#FFFFFF" d="m20.99661,7.42456c0.118,0 0.224,0.10602 0.224,0.23804c0,0.03698 -0.015,0.07501 -0.026,0.09601c-0.021,0.04199 -0.034,0.091 0.054,0.091l0.32,0l0,-4.04602c0,-0.55499 0.044,-1.20801 0.362,-1.85199l0.092,-0.18103l0.092,0.18103c0.304,0.64996 0.348,1.30096 0.348,1.85199l0,4.04602l0.318,0c0.09,0 0.075,-0.04901 0.054,-0.091c-0.011,-0.021 -0.024,-0.05903 -0.024,-0.09601c0,-0.13202 0.107,-0.23804 0.239,-0.23804c0.136,0 0.241,0.11603 0.241,0.24603c0,0.16602 -0.127,0.33802 -0.427,0.33802l-0.528,0c0.077,0.19799 0.122,0.47399 0.122,0.76898c0,0.37903 -0.074,0.708 -0.174,0.91498c0.389,-0.06299 0.694,-0.15998 0.97,-0.31196l0.026,-0.01605l0.073,0.17304l-0.02,0.01196c-0.249,0.13904 -0.502,0.20001 -0.803,0.27106c0,0 -0.215,0.04095 -0.363,0.06695c0.042,0.039 0.063,0.09204 0.063,0.15705c0,0.11895 -0.093,0.21399 -0.218,0.21399c-0.122,0 -0.223,-0.09504 -0.223,-0.21399c0,-0.06501 0.029,-0.11805 0.067,-0.15705c-0.158,-0.02697 -0.383,-0.06695 -0.39,-0.06695c-0.289,-0.07105 -0.522,-0.13202 -0.773,-0.27106l-0.021,-0.01196l0.076,-0.17304l0.024,0.01605c0.283,0.15296 0.585,0.25196 0.99,0.31501c-0.116,-0.20801 -0.19,-0.53705 -0.19,-0.91803c0,-0.29499 0.045,-0.57099 0.121,-0.76898l-0.527,0c-0.282,0 -0.413,-0.17499 -0.413,-0.33802c0,-0.13 0.111,-0.24603 0.244,-0.24603" id="svg_49"/>
   <path clip-path="url(#SVGID_10_)" fill="#FFFFFF" d="m20.16571,8.81329c-0.002,0.01203 -0.003,0.02002 -0.006,0.03003c-0.042,-0.01703 -0.084,-0.03302 -0.131,-0.04498c-0.113,-0.11102 -0.194,-0.22803 -0.234,-0.37103c-0.033,-0.09998 -0.052,-0.20496 -0.052,-0.31299c0,-0.09101 0.034,-0.18701 0.058,-0.28302c0.11,0.09503 0.213,0.20202 0.284,0.32605c-0.033,0.23596 -0.003,0.461 0.081,0.65594" id="svg_50"/>
   <path clip-path="url(#SVGID_10_)" fill="#FFFFFF" d="m19.60821,4.46509c-0.244,0.005 -0.466,0.07202 -0.651,0.19305c-0.008,-0.00104 -0.016,-0.00104 -0.025,-0.00305c0.014,-0.04999 0.024,-0.099 0.029,-0.14795c0.089,-0.12701 0.197,-0.22504 0.329,-0.29401c0.185,-0.09399 0.391,-0.125 0.592,-0.104c-0.069,0.14301 -0.159,0.26099 -0.274,0.35596" id="svg_51"/>
   <path clip-path="url(#SVGID_10_)" fill="#FFFFFF" d="m19.58271,8.31488c-0.005,0.00806 -0.01,0.01801 -0.014,0.02502c-0.041,-0.02801 -0.081,-0.05499 -0.125,-0.08001c-0.084,-0.13098 -0.14,-0.26697 -0.154,-0.41901c-0.002,-0.02698 -0.004,-0.05194 -0.004,-0.07898c0,-0.17401 0.059,-0.34198 0.147,-0.50299c0.105,0.12402 0.181,0.25 0.22,0.39203c-0.088,0.22497 -0.11,0.44598 -0.07,0.66394" id="svg_52"/>
   <path clip-path="url(#SVGID_10_)" fill="#FFFFFF" d="m18.93731,7.15588c0.031,-0.19897 0.138,-0.37695 0.283,-0.53296c0.069,0.14002 0.115,0.27698 0.119,0.42298c-0.136,0.20099 -0.216,0.41101 -0.232,0.63104c-0.007,0.00897 -0.012,0.01599 -0.019,0.02496c-0.033,-0.03796 -0.067,-0.07196 -0.103,-0.10699c-0.034,-0.10101 -0.058,-0.19898 -0.058,-0.30298c0,-0.04504 0.004,-0.09003 0.01,-0.13605" id="svg_53"/>
   <path clip-path="url(#SVGID_10_)" fill="#FFFFFF" d="m18.79751,6.95135c-0.006,0.00702 -0.014,0.01203 -0.024,0.01905c-0.023,-0.04602 -0.05,-0.09101 -0.077,-0.13703c-0.004,-0.01696 -0.009,-0.03601 -0.009,-0.05499c0,-0.125 0.023,-0.25299 0.071,-0.37298c0.074,-0.185 0.22,-0.32801 0.398,-0.44703c0.015,0.07801 0.039,0.159 0.039,0.22901c0,0.06799 -0.008,0.13501 -0.024,0.203c-0.179,0.164 -0.305,0.35901 -0.374,0.56097" id="svg_54"/>
   <path clip-path="url(#SVGID_10_)" fill="#FFFFFF" d="m18.94411,4.89398c0.146,-0.13098 0.343,-0.198 0.56,-0.22296c-0.044,0.14996 -0.104,0.28302 -0.193,0.39398c-0.233,0.06604 -0.427,0.17999 -0.579,0.33203c-0.013,0.00098 -0.024,0.00501 -0.034,0.00598c0,-0.04602 -0.004,-0.09301 -0.008,-0.13897c0.055,-0.14905 0.14,-0.27802 0.254,-0.37006" id="svg_55"/>
   <path clip-path="url(#SVGID_10_)" fill="#FFFFFF" d="m18.76191,5.63818c0.115,-0.15796 0.292,-0.27398 0.5,-0.35199c-0.001,0.16101 -0.035,0.305 -0.1,0.44001c-0.21,0.112 -0.378,0.27203 -0.493,0.45501c-0.01,0.00501 -0.02,0.00702 -0.026,0.01099c-0.01,-0.04797 -0.025,-0.09796 -0.041,-0.146c0.021,-0.15301 0.072,-0.29101 0.16,-0.40802" id="svg_56"/>
   <path clip-path="url(#SVGID_10_)" fill="#FFFFFF" d="m18.70701,7.4054c-0.089,-0.04297 -0.181,-0.07496 -0.287,-0.09595c-0.09,-0.052 -0.169,-0.11603 -0.237,-0.193c-0.139,-0.16003 -0.211,-0.35705 -0.237,-0.58105c0.219,0.05701 0.413,0.15802 0.549,0.30902c0.121,0.16003 0.184,0.35498 0.212,0.56098" id="svg_57"/>
   <path clip-path="url(#SVGID_10_)" fill="#FFFFFF" d="m18.76731,7.64789l0.001,0.00201c0.164,0.11603 0.277,0.29102 0.356,0.48505c-0.107,-0.02503 -0.218,-0.03302 -0.332,-0.02802c-0.094,-0.031 -0.178,-0.07104 -0.252,-0.125c-0.17,-0.11999 -0.289,-0.307 -0.364,-0.52502c0.228,0.005 0.427,0.06799 0.591,0.19098" id="svg_58"/>
   <path clip-path="url(#SVGID_10_)" fill="#FFFFFF" d="m19.24211,8.36218l0,0c0.187,0.078 0.341,0.22003 0.46,0.388c-0.109,0 -0.214,0.01801 -0.32,0.04804c-0.101,-0.00702 -0.202,-0.02698 -0.296,-0.06702c-0.199,-0.07599 -0.353,-0.21997 -0.469,-0.40601c0.213,-0.04699 0.428,-0.04296 0.625,0.03699" id="svg_59"/>
   <path clip-path="url(#SVGID_10_)" fill="#FFFFFF" d="m19.85581,8.94287l0.002,0c0.204,0.03101 0.392,0.14105 0.557,0.29401c-0.2,0.09002 -0.414,0.138 -0.613,0.10699c-0.204,-0.03198 -0.392,-0.13696 -0.557,-0.29199c0.204,-0.09601 0.414,-0.13898 0.611,-0.10901" id="svg_60"/>
   <path clip-path="url(#SVGID_10_)" fill="#FFFFFF" d="m20.40461,8.87866c-0.098,-0.15997 -0.15,-0.33398 -0.15,-0.52997c0,-0.01898 0.005,-0.03698 0.005,-0.057c0.2,0.08697 0.369,0.21002 0.482,0.38098c0.1,0.15802 0.151,0.34601 0.151,0.544c0,0.016 -0.002,0.03205 -0.002,0.04804c-0.204,-0.08301 -0.374,-0.20599 -0.486,-0.38605" id="svg_61"/>
   <path clip-path="url(#SVGID_10_)" fill="#FFFFFF" d="m20.06001,3.16479c0.036,-0.07495 0.063,-0.15094 0.083,-0.23498c0.021,-0.01898 0.043,-0.039 0.067,-0.05701c0.174,-0.12195 0.383,-0.185 0.609,-0.18799c-0.077,0.21399 -0.196,0.39704 -0.371,0.51899c-0.157,0.10803 -0.34,0.16705 -0.539,0.182c0.054,-0.06897 0.107,-0.14197 0.149,-0.21899l0.002,-0.00202z" id="svg_62"/>
   <path clip-path="url(#SVGID_10_)" fill="#FFFFFF" d="m19.53761,2.90814c0.094,-0.19495 0.257,-0.33795 0.441,-0.44299c0.007,0.05102 0.02,0.10504 0.02,0.16003c0,0.16602 -0.036,0.323 -0.106,0.46198c-0.082,0.17602 -0.229,0.315 -0.415,0.42499c0.006,-0.11396 -0.004,-0.22699 -0.028,-0.33997c0.016,-0.091 0.045,-0.17902 0.088,-0.26404" id="svg_63"/>
   <path clip-path="url(#SVGID_10_)" fill="#FFFFFF" d="m19.40381,3.83527c0.115,-0.10199 0.244,-0.172 0.391,-0.20997c0.184,-0.04699 0.391,-0.03002 0.597,0.04499c-0.103,0.112 -0.226,0.20801 -0.358,0.27301c-0.224,-0.04798 -0.45,-0.034 -0.661,0.039c-0.009,-0.00299 -0.018,-0.00501 -0.028,-0.008c0.024,-0.044 0.04,-0.09198 0.059,-0.13903" id="svg_64"/>
   <path clip-path="url(#SVGID_10_)" fill="#FFFFFF" d="m18.86971,3.56659c0.046,-0.20496 0.172,-0.38696 0.341,-0.53198c0.05,0.13 0.085,0.26702 0.085,0.40203c0,0.07599 -0.006,0.15296 -0.025,0.22901c-0.045,0.18799 -0.161,0.35895 -0.314,0.50598c-0.021,-0.10999 -0.059,-0.21802 -0.11,-0.323c-0.002,-0.02002 -0.002,-0.04498 -0.002,-0.065c0,-0.073 0.008,-0.14301 0.025,-0.21704" id="svg_65"/>
   <path clip-path="url(#SVGID_10_)" fill="#FFFFFF" d="m18.39461,4.36395c0,-0.20697 0.077,-0.40997 0.194,-0.59399c0.119,0.18902 0.199,0.388 0.199,0.59002l0,0.00898c0,0.20105 -0.072,0.39105 -0.18,0.565c-0.038,-0.09399 -0.09,-0.18799 -0.159,-0.27295c-0.034,-0.09503 -0.054,-0.19305 -0.054,-0.29303l0,-0.00403z" id="svg_66"/>
   <path clip-path="url(#SVGID_10_)" fill="#FFFFFF" d="m18.15591,4.63049c0.169,0.15302 0.296,0.32605 0.349,0.53003c0.019,0.07898 0.028,0.16101 0.028,0.24103c0,0.12396 -0.03,0.23999 -0.073,0.36298c-0.065,-0.08899 -0.148,-0.16999 -0.234,-0.23102c-0.055,-0.08301 -0.099,-0.17499 -0.124,-0.27301c-0.02,-0.07697 -0.03,-0.15698 -0.03,-0.23596c0,-0.125 0.035,-0.26099 0.084,-0.39405" id="svg_67"/>
   <path clip-path="url(#SVGID_10_)" fill="#FFFFFF" d="m17.93481,5.57025c0.198,0.10303 0.365,0.24701 0.464,0.43805c0.075,0.14398 0.114,0.302 0.114,0.47595c0,0.03601 -0.008,0.07904 -0.013,0.11603c-0.086,-0.07098 -0.182,-0.13 -0.285,-0.17297c-0.073,-0.07202 -0.134,-0.151 -0.181,-0.23804c-0.081,-0.14002 -0.118,-0.30597 -0.118,-0.474c0,-0.04797 0.012,-0.09796 0.019,-0.14502" id="svg_68"/>
   <path clip-path="url(#SVGID_10_)" fill="#006CAB" d="m22.27341,3.80389c0,-0.45996 -0.044,-0.99298 -0.251,-1.52697l0,5.32501l0.251,0l0,-3.79804z" id="svg_69"/>
   <path clip-path="url(#SVGID_10_)" fill="#FFFFFF" d="m12.24831,8.16009c0.422,0.11103 0.875,0.22101 1.321,0.19001l0,-5.47596l0,-0.11499c-0.479,0.029 -0.948,-0.08606 -1.387,-0.20105c-0.393,-0.096 -0.765,-0.18896 -1.094,-0.17395c-0.468,0.01398 -0.715,0.14899 -0.875,0.28894l0,0.20105l0,5.33997c0.238,-0.15198 0.512,-0.22601 0.866,-0.23596c0.367,-0.01502 0.754,0.07696 1.169,0.18194" id="svg_70"/>
   <path clip-path="url(#SVGID_10_)" fill="#FFFFFF" d="m9.08951,7.97784c0.353,0.01001 0.627,0.08503 0.862,0.23706l0,-5.341l0,-0.20105c-0.161,-0.14496 -0.405,-0.27496 -0.872,-0.289c-0.338,-0.01495 -0.701,0.07904 -1.094,0.17401c-0.446,0.11603 -0.904,0.23102 -1.384,0.20099l0,0.11505l0,5.47595c0.443,0.03205 0.889,-0.07898 1.319,-0.19c0.412,-0.104 0.797,-0.19696 1.169,-0.18201" id="svg_71"/>
   <path clip-path="url(#SVGID_10_)" fill="#FFFFFF" d="m14.27241,2.87366l-0.359,0l0.031,0.125c0.003,0.00903 0.005,0.02703 0.005,0.039l0,5.75403c-0.282,0 -3.394,-0.00702 -3.567,-0.00702c-0.064,0.10901 -0.142,0.12799 -0.307,0.12799c-0.15,0 -0.216,-0.01898 -0.281,-0.12799c-0.158,0 -3.023,0.00702 -3.584,0.00702l0,-5.75403c0,-0.01196 0,-0.02997 0.003,-0.04096l0.031,-0.12304l-0.483,0l0,6.36602l3.845,0c0.08,0.15198 0.248,0.27698 0.469,0.27698c0.238,0 0.405,-0.125 0.488,-0.27698l3.845,0l0,-6.36602l-0.136,0z" id="svg_72"/>
   <path clip-path="url(#SVGID_10_)" fill="#006CAB" d="m11.07961,3.72845c-0.204,0.00806 -0.38,0.03705 -0.539,0.08704l0,0.28601c0.141,-0.05304 0.314,-0.09399 0.548,-0.10303c0.328,-0.01001 0.699,0.08301 1.089,0.18299c0.331,0.08703 0.681,0.169 1.041,0.195l0,-0.26397c-0.331,-0.02698 -0.664,-0.10804 -0.972,-0.19403c-0.414,-0.10297 -0.803,-0.20197 -1.167,-0.19001" id="svg_73"/>
   <path clip-path="url(#SVGID_10_)" fill="#006CAB" d="m11.07961,6.97308c-0.204,0.00605 -0.38,0.03504 -0.539,0.08606l0,0.28595c0.141,-0.05499 0.314,-0.09601 0.548,-0.09997c0.325,-0.01599 0.697,0.08001 1.088,0.17602c0.33,0.086 0.68,0.172 1.042,0.19696l0,-0.263c-0.333,-0.02301 -0.665,-0.10602 -0.975,-0.19201c-0.411,-0.10199 -0.8,-0.20197 -1.164,-0.19001" id="svg_74"/>
   <path clip-path="url(#SVGID_10_)" fill="#006CAB" d="m11.07961,6.32227c-0.204,0.00805 -0.38,0.03601 -0.539,0.08502l0,0.28802c0.14,-0.05499 0.314,-0.09601 0.548,-0.10303c0.328,-0.01196 0.699,0.08301 1.091,0.18c0.329,0.08502 0.68,0.17303 1.039,0.19604l0,-0.26202c-0.331,-0.02503 -0.664,-0.11102 -0.971,-0.19403c-0.414,-0.10498 -0.801,-0.20496 -1.168,-0.19" id="svg_75"/>
   <path clip-path="url(#SVGID_10_)" fill="#006CAB" d="m11.07961,4.37689c-0.204,0.00702 -0.38,0.03504 -0.539,0.08502l0,0.28699c0.14,-0.05298 0.314,-0.09296 0.548,-0.10199c0.325,-0.01099 0.695,0.08099 1.086,0.18201c0.331,0.08697 0.682,0.16803 1.044,0.19501l0,-0.26398c-0.333,-0.02503 -0.668,-0.11005 -0.977,-0.19202c-0.412,-0.10602 -0.798,-0.20502 -1.162,-0.19104" id="svg_76"/>
   <path clip-path="url(#SVGID_10_)" fill="#006CAB" d="m11.07961,5.67834c-0.204,0.00202 -0.38,0.02802 -0.539,0.07703l0,0.28601c0.139,-0.052 0.312,-0.091 0.545,-0.09399c0.328,-0.01099 0.698,0.08099 1.088,0.18097c0.329,0.07904 0.683,0.17004 1.045,0.19403l0,-0.263c-0.335,-0.02503 -0.668,-0.10901 -0.98,-0.19202c-0.41,-0.104 -0.795,-0.20197 -1.159,-0.18903" id="svg_77"/>
   <path clip-path="url(#SVGID_10_)" fill="#006CAB" d="m12.24631,3.26855c-0.414,-0.10296 -0.803,-0.19494 -1.167,-0.18396c-0.204,0.00501 -0.379,0.03199 -0.538,0.081l0,0.28601c0.139,-0.05402 0.314,-0.094 0.547,-0.10199c0.328,-0.01203 0.699,0.08099 1.089,0.18097c0.332,0.08899 0.681,0.17303 1.041,0.19403l0,-0.263c-0.331,-0.026 -0.664,-0.10803 -0.972,-0.19306" id="svg_78"/>
   <path clip-path="url(#SVGID_10_)" fill="#006CAB" d="m7.92431,6.51556c-0.323,0.08002 -0.643,0.16504 -0.978,0.19104l0,0.26398c0.365,-0.02496 0.7,-0.11298 1.044,-0.198c0.393,-0.09698 0.751,-0.19201 1.089,-0.17999c0.234,0.00702 0.412,0.04602 0.551,0.10199l0,-0.28699c-0.161,-0.04901 -0.336,-0.078 -0.541,-0.08502c-0.372,-0.013 -0.752,0.08502 -1.165,0.19299" id="svg_79"/>
   <path clip-path="url(#SVGID_10_)" fill="#006CAB" d="m7.93161,5.86768c-0.327,0.083 -0.649,0.16705 -0.985,0.19403l0,0.26098c0.367,-0.02398 0.703,-0.11596 1.051,-0.19397c0.388,-0.10003 0.748,-0.19201 1.082,-0.182c0.234,0.00396 0.412,0.04296 0.551,0.09796l0,-0.28595c-0.161,-0.04901 -0.338,-0.07801 -0.541,-0.08002c-0.37,-0.013 -0.749,0.08502 -1.158,0.18897" id="svg_80"/>
   <path clip-path="url(#SVGID_10_)" fill="#006CAB" d="m11.07961,5.02649c-0.204,0.00604 -0.38,0.03503 -0.539,0.08502l0,0.28601c0.14,-0.05102 0.314,-0.09302 0.548,-0.09997c0.328,-0.013 0.699,0.07995 1.091,0.18298c0.329,0.08197 0.68,0.16498 1.039,0.19299l0,-0.26202c-0.331,-0.026 -0.664,-0.11096 -0.972,-0.19501c-0.413,-0.10498 -0.8,-0.20294 -1.167,-0.19" id="svg_81"/>
   <path clip-path="url(#SVGID_10_)" fill="#006CAB" d="m7.92521,7.16455c-0.323,0.08405 -0.644,0.16705 -0.979,0.19l0,0.26502c0.365,-0.02497 0.701,-0.11298 1.045,-0.19898c0.392,-0.09601 0.75,-0.19104 1.088,-0.17499c0.235,0.00397 0.41,0.04297 0.551,0.09797l0,-0.28498c-0.161,-0.04998 -0.337,-0.08001 -0.541,-0.086c-0.372,-0.01202 -0.752,0.08899 -1.164,0.19196" id="svg_82"/>
   <path clip-path="url(#SVGID_10_)" fill="#006CAB" d="m7.92311,3.26855c-0.322,0.08503 -0.642,0.16803 -0.977,0.19306l0,0.263c0.363,-0.021 0.7,-0.10504 1.045,-0.19403c0.392,-0.09998 0.75,-0.193 1.089,-0.18097c0.234,0.00995 0.411,0.04797 0.551,0.10199l0,-0.28504c-0.162,-0.04998 -0.337,-0.07696 -0.538,-0.08197c-0.376,-0.01098 -0.758,0.081 -1.17,0.18396" id="svg_83"/>
   <path clip-path="url(#SVGID_10_)" fill="#006CAB" d="m7.92311,3.91888c-0.322,0.08503 -0.642,0.16901 -0.977,0.19403l0,0.26398c0.363,-0.02698 0.7,-0.10596 1.045,-0.19598c0.392,-0.099 0.75,-0.19202 1.089,-0.18299c0.234,0.01001 0.409,0.04902 0.551,0.10297l0,-0.28497c-0.162,-0.05103 -0.338,-0.08002 -0.542,-0.08698c-0.372,-0.01202 -0.754,0.08698 -1.166,0.18994" id="svg_84"/>
   <path clip-path="url(#SVGID_10_)" fill="#006CAB" d="m7.92431,5.21686c-0.323,0.08404 -0.643,0.16803 -0.978,0.19305l0,0.26099c0.365,-0.02503 0.7,-0.10803 1.044,-0.193c0.393,-0.10003 0.751,-0.19299 1.089,-0.17999c0.234,0.00696 0.412,0.047 0.551,0.09998l0,-0.284c-0.161,-0.052 -0.336,-0.08099 -0.537,-0.08697c-0.376,-0.01404 -0.756,0.08496 -1.169,0.18994" id="svg_85"/>
   <path clip-path="url(#SVGID_10_)" fill="#006CAB" d="m7.93161,4.56787c-0.328,0.08405 -0.651,0.16705 -0.985,0.19305l0,0.26301c0.367,-0.02503 0.703,-0.10804 1.051,-0.19501c0.388,-0.10102 0.748,-0.193 1.082,-0.18201c0.234,0.00897 0.412,0.04797 0.551,0.099l0,-0.284c-0.161,-0.04998 -0.337,-0.078 -0.537,-0.08502c-0.374,-0.01398 -0.753,0.08502 -1.162,0.19098" id="svg_86"/>
   <polygon clip-path="url(#SVGID_10_)" fill="#FFFFFF" points="12.910014241933823,22.654171854257584 12.898013204336166,23.475216776132584 12.251013845205307,22.968197733163834 11.586012929677963,23.475216776132584 11.571013540029526,22.654171854257584 10.776011556386948,22.449215799570084 11.407012075185776,21.928219705820084 11.069010823965073,21.175228983163834 11.874011129140854,21.342221170663834 12.251013845205307,20.607174783945084 12.611010640859604,21.342221170663834 13.431014150381088,21.175228983163834 13.080012410879135,21.928219705820084 13.711012929677963,22.449215799570084 " id="svg_87"/>
   <polygon clip-path="url(#SVGID_10_)" fill="#FFFFFF" points="17.405215352773666,28.447079569101334 16.589215368032455,28.139096170663834 16.225215047597885,28.940121561288834 15.872213453054428,28.139096170663834 15.045213788747787,28.447079569101334 15.35321244597435,27.624081522226334 14.561213582754135,27.250119119882584 15.35321244597435,26.891110330820084 15.045213788747787,26.060116678476334 15.872213453054428,26.369137674570084 16.225215047597885,25.565121561288834 16.589215368032455,26.369137674570084 17.405215352773666,26.060116678476334 17.109213918447495,26.891110330820084 17.89621266722679,27.253109842538834 17.109213918447495,27.624081522226334 " id="svg_88"/>
   <polygon clip-path="url(#SVGID_10_)" fill="#FFFFFF" points="15.021914571523666,17.413693338632584 15.838913053274155,17.584713846445084 16.20091161131859,16.847714334726334 16.57690915465355,17.584713846445084 17.386912435293198,17.413693338632584 17.0479117333889,18.163693338632584 17.676915258169174,18.693722635507584 16.87991437315941,18.890744119882584 16.862916082143784,19.717709451913834 16.20091161131859,19.213742166757584 15.554910749197006,19.717709451913834 15.540910810232162,18.890744119882584 14.74291142821312,18.693722635507584 15.374910444021225,18.163693338632584 " id="svg_89"/>
   <polygon clip-path="url(#SVGID_10_)" fill="#FFFFFF" points="18.287314504384995,24.080990701913834 17.645314306020737,23.762020975351334 17.021311849355698,24.080990701913834 17.13731297850609,23.377011209726334 16.62831410765648,22.876034647226334 17.331313222646713,22.764035135507584 17.645314306020737,22.136044412851334 17.976315587759018,22.764035135507584 18.667313665151596,22.876034647226334 18.178313344717026,23.377011209726334 " id="svg_90"/>
   <polygon clip-path="url(#SVGID_10_)" fill="#FFFFFF" points="20.88621434569359,21.494076639413834 20.153212636709213,21.485104471445084 19.8062125146389,22.113095194101334 19.451212972402573,21.485104471445084 18.719212621450424,21.494076639413834 19.09521397948265,20.873104959726334 18.719212621450424,20.248104959726334 19.451212972402573,20.261105448007584 19.8062125146389,19.628109842538834 20.153212636709213,20.261105448007584 20.88621434569359,20.248104959726334 20.509211629629135,20.873104959726334 " id="svg_91"/>
   <path clip-path="url(#SVGID_10_)" fill="#FFFFFF" d="m16.20081,13.81268l9.081,8.14502c0.594,-1.13501 1.025,-2.24798 1.363,-3.30401l-10.444,-9.37696l-10.423,9.37696c0.333,1.05603 0.765,2.169 1.362,3.30401l9.061,-8.14502z" id="svg_92"/>
   <path clip-path="url(#SVGID_10_)" fill="#FFFFFF" d="m30.28661,24.70654l0.491,-3.03296l-1.406,-1.26001c0.148,-0.39203 0.29,-0.78601 0.402,-1.20202c0.421,0.38 1.84,1.65301 2.043,1.83203c-0.41901,1.29297 -0.981,2.57098 -1.53,3.66296" id="svg_93"/>
   <path clip-path="url(#SVGID_10_)" fill="#FFFFFF" d="m29.60751,25.71838c-0.138,-0.12396 -0.332,-0.29895 -0.555,-0.49499c0.003,-0.00397 0.005,-0.00696 0.005,-0.00995c0.32,-0.54401 0.624,-1.09802 0.89,-1.67603l-0.34,2.18097z" id="svg_94"/>
   <path clip-path="url(#SVGID_10_)" fill="#FFFFFF" d="m0.60211,21.04339c0.201,-0.17797 1.624,-1.45397 2.032,-1.83197c0.129,0.41901 0.271,0.80903 0.417,1.198l-1.408,1.26502l0.488,3.02496c-0.552,-1.09595 -1.114,-2.375 -1.529,-3.65601" id="svg_95"/>
   <path clip-path="url(#SVGID_10_)" fill="#FFFFFF" d="m2.80501,25.71838l-0.336,-2.18695c0.268,0.57898 0.575,1.138 0.899,1.68799c-0.218,0.19299 -0.426,0.37701 -0.563,0.49896" id="svg_96"/>
   <path clip-path="url(#SVGID_10_)" fill="#FFFFFF" d="m28.23911,25.62488c-2.603,4.14703 -6.274,7.17901 -10.625,8.77301c0,0 -1.254,0.45404 -1.413,0.51501c-0.142,-0.06097 -1.396,-0.51599 -1.396,-0.51599c-4.35,-1.59198 -8.021,-4.625 -10.627,-8.77502c-0.742,-1.19098 -1.383,-2.48096 -1.906,-3.81598c0.225,-0.20099 1.577,-1.42401 1.979,-1.784c0.546,1.53497 1.214,2.97699 2.034,4.27899c2.311,3.67798 5.54,6.36402 9.369,7.76398c0.003,0 0.547,0.19702 0.547,0.19702l0.563,-0.19702c3.828,-1.39795 7.061,-4.086 9.36,-7.76398c0.832,-1.30798 1.5,-2.75 2.045,-4.27899c0.388,0.35999 1.751,1.58301 1.978,1.784c-0.533,1.354 -1.176,2.64398 -1.908,3.81897" id="svg_97"/>
   <path clip-path="url(#SVGID_10_)" fill="#006CAB" d="m5.01151,24.26123l0.413,-0.45801l-0.036,-0.13898c-0.078,-0.07501 -0.153,-0.15002 -0.228,-0.23602c-0.427,0.07599 -1.101,0.18402 -1.403,0.198l-0.08,-0.091l-0.08,0.04498c0.042,0.07001 0.08,0.14105 0.118,0.21203c0.044,0.08301 0.087,0.17103 0.131,0.25397l0.078,-0.047l-0.035,-0.12298l0.445,-0.10199l0.238,0.41901c-0.082,0.10296 -0.231,0.24896 -0.32,0.33398l-0.087,-0.10101l-0.085,0.04699c0.059,0.10401 0.12,0.20404 0.181,0.30903c0.053,0.09698 0.109,0.20001 0.162,0.302l0.086,-0.04901l-0.041,-0.12299c0.08,-0.11499 0.348,-0.42798 0.543,-0.651m-0.493,-0.52203l0.57,-0.11799l0.002,0.00501l-0.392,0.43402l-0.18,-0.32104z" id="svg_98"/>
   <path clip-path="url(#SVGID_10_)" fill="#006CAB" d="m7.03931,26.39667l0.079,-0.05799c-0.054,-0.07196 -0.11,-0.14197 -0.162,-0.21399c-0.053,-0.07098 -0.101,-0.14502 -0.151,-0.21698l-0.083,0.05597l0.062,0.12604c-0.207,0.17096 -0.744,0.57098 -0.744,0.57098l-0.003,-0.00201c0.135,-0.37701 0.294,-0.81201 0.435,-1.20502c-0.05,-0.06695 -0.099,-0.12695 -0.147,-0.19494c-0.045,-0.06702 -0.087,-0.13306 -0.131,-0.20301l-0.075,0.05799l0.057,0.125c-0.095,0.086 -0.198,0.16601 -0.325,0.255l-0.357,0.25696c-0.131,0.09204 -0.236,0.16205 -0.349,0.22504l-0.099,-0.09803l-0.075,0.05701c0.052,0.07098 0.105,0.14002 0.156,0.21503c0.048,0.07196 0.097,0.14398 0.15,0.21899l0.078,-0.05804l-0.061,-0.12696c0.206,-0.17102 0.515,-0.39099 0.759,-0.57l0.002,0.00201c-0.155,0.39697 -0.299,0.80896 -0.457,1.22699c0.037,0.04401 0.074,0.09198 0.108,0.14002c0.036,0.04296 0.066,0.09594 0.09,0.13299c0.116,-0.09503 0.268,-0.20904 0.442,-0.33905l0.345,-0.25195c0.131,-0.09101 0.241,-0.16101 0.353,-0.22705l0.103,0.099z" id="svg_99"/>
   <path clip-path="url(#SVGID_10_)" fill="#006CAB" d="m7.13711,27.58307c-0.351,0.315 -0.311,0.78705 -0.036,1.08301c0.188,0.20404 0.394,0.32702 0.739,0.35504l0.027,-0.17701c-0.201,-0.02703 -0.342,-0.10601 -0.433,-0.21301c-0.212,-0.22998 -0.224,-0.55603 0.033,-0.79602c0.259,-0.24097 0.539,-0.16101 0.706,0.01801c0.08,0.08398 0.146,0.22198 0.171,0.341l-0.079,0.09399l0.07,0.08204c0.085,-0.07502 0.216,-0.14905 0.322,-0.18799c-0.075,-0.18201 -0.164,-0.32001 -0.297,-0.46002c-0.364,-0.391 -0.872,-0.46802 -1.223,-0.13904" id="svg_100"/>
   <path clip-path="url(#SVGID_10_)" fill="#006CAB" d="m10.05471,29.33087c-0.411,-0.35101 -0.891,-0.29401 -1.172,0.03998c-0.31,0.38403 -0.237,0.81402 0.173,1.16003c0.426,0.35199 0.896,0.29297 1.168,-0.04199c0.329,-0.38 0.252,-0.81201 -0.169,-1.15802m-0.138,0.89697c-0.21,0.24903 -0.504,0.32404 -0.726,0.14105c-0.221,-0.18304 -0.2,-0.48303 0.013,-0.73199c0.213,-0.25305 0.506,-0.328 0.725,-0.14203c0.209,0.18103 0.187,0.48102 -0.012,0.73297" id="svg_101"/>
   <path clip-path="url(#SVGID_10_)" fill="#006CAB" d="m12.21621,30.91003c-0.089,-0.05499 -0.182,-0.10803 -0.273,-0.16198c-0.093,-0.05603 -0.185,-0.10602 -0.273,-0.16102c-0.075,-0.04699 -0.15,-0.10003 -0.226,-0.14898l-0.053,0.08398l0.104,0.09497c-0.058,0.11701 -0.121,0.22602 -0.207,0.36103l-0.214,0.36798c-0.086,0.13104 -0.159,0.23401 -0.24,0.33801l-0.131,-0.052l-0.051,0.08398c0.103,0.06201 0.203,0.12 0.303,0.18305c0.098,0.05896 0.192,0.12597 0.283,0.19l0.05,-0.08301l-0.095,-0.09399c0.049,-0.11701 0.111,-0.23102 0.198,-0.36505l0.074,-0.11597l0.096,0.06201c0.025,0.22498 0.048,0.60199 0.064,0.87c0.137,0.065 0.281,0.13598 0.413,0.22101l0.052,-0.08204l-0.042,-0.05902c-0.025,-0.10296 -0.097,-0.64197 -0.119,-0.79095c0.208,0.08899 0.424,0.05298 0.531,-0.12799c0.105,-0.172 0.108,-0.38904 -0.244,-0.61402m-0.107,0.40796c-0.095,0.14905 -0.246,0.14301 -0.429,0.02802c-0.044,-0.02497 -0.081,-0.05298 -0.109,-0.07898l0.065,-0.107c0.068,-0.10803 0.131,-0.19903 0.174,-0.25299c0.056,0.02301 0.099,0.047 0.182,0.09796c0.156,0.09504 0.188,0.19904 0.117,0.31299" id="svg_102"/>
   <path clip-path="url(#SVGID_10_)" fill="#006CAB" d="m14.43571,32.09241l-0.112,-0.09198c-0.106,-0.01398 -0.211,-0.02802 -0.325,-0.05597c-0.303,0.32196 -0.768,0.80694 -1.011,1.00097l-0.123,-0.02697l-0.038,0.08899c0.073,0.03296 0.151,0.06299 0.225,0.09698c0.086,0.03803 0.177,0.08197 0.261,0.12299l0.044,-0.08899l-0.107,-0.07599l0.298,-0.34601l0.43,0.198c-0.006,0.13202 -0.035,0.33398 -0.059,0.45697l-0.13,-0.03095l-0.039,0.08698c0.11,0.04901 0.222,0.09198 0.332,0.14203c0.1,0.04797 0.205,0.099 0.309,0.14795l0.039,-0.08997l-0.103,-0.07599c-0.005,-0.13702 0.02,-0.54803 0.049,-0.84503l0.06,-0.61401zm-0.439,0.64099l-0.332,-0.15094l0.388,-0.43506l0.005,0.00201l-0.061,0.58399z" id="svg_103"/>
   <path clip-path="url(#SVGID_10_)" fill="#006CAB" d="m18.74351,33.25635c-0.065,-0.11298 -0.118,-0.22699 -0.176,-0.37299l-0.17,-0.39197c-0.065,-0.14801 -0.113,-0.26501 -0.153,-0.388l0.119,-0.078l-0.042,-0.09003c-0.109,0.04999 -0.215,0.10102 -0.32,0.14502c-0.109,0.047 -0.218,0.08899 -0.328,0.13703l0.041,0.086l0.138,-0.03003c0.063,0.11297 0.12,0.22802 0.186,0.37298l0.174,0.396c0.066,0.14404 0.109,0.26105 0.153,0.38501l-0.116,0.078l0.038,0.08899c0.111,-0.04901 0.215,-0.09997 0.316,-0.14697c0.097,-0.047 0.208,-0.08801 0.319,-0.13404l-0.042,-0.08795l-0.137,0.03095z" id="svg_104"/>
   <path clip-path="url(#SVGID_10_)" fill="#006CAB" d="m21.45741,31.7818c-0.079,-0.107 -0.149,-0.21295 -0.233,-0.34796l-0.21,-0.37299c-0.082,-0.13299 -0.142,-0.24402 -0.197,-0.36102l0.107,-0.09302l-0.052,-0.08496c-0.088,0.05798 -0.176,0.11395 -0.267,0.16595c-0.087,0.05201 -0.183,0.10401 -0.273,0.15601c0.051,0.19403 0.202,0.94 0.233,1.09705c-0.169,-0.11701 -0.715,-0.58405 -0.854,-0.72004c-0.089,0.05603 -0.177,0.11103 -0.263,0.16303c-0.089,0.052 -0.182,0.09997 -0.272,0.15198l0.051,0.08099l0.122,-0.04102l0.107,0.17603c0.104,0.17603 0.43,0.75403 0.51,0.91797l-0.103,0.09406l0.049,0.08099c0.076,-0.04504 0.149,-0.09302 0.225,-0.138c0.077,-0.04804 0.157,-0.09003 0.236,-0.13202l-0.05,-0.08398l-0.133,0.04998c-0.078,-0.10498 -0.149,-0.21197 -0.233,-0.34802l-0.123,-0.21198c-0.102,-0.18603 -0.178,-0.31598 -0.214,-0.38098l0.003,-0.00305c0.547,0.461 0.845,0.70105 0.994,0.83203l0.204,-0.11999l-0.261,-1.27704l0.003,-0.00195c0.042,0.06298 0.124,0.19299 0.235,0.37695l0.128,0.21002c0.083,0.138 0.138,0.25104 0.186,0.36902l-0.091,0.08996l0.043,0.086c0.09,-0.06195 0.189,-0.12298 0.292,-0.18499c0.101,-0.06 0.206,-0.11701 0.308,-0.17701l-0.048,-0.08294l-0.159,0.06494z" id="svg_105"/>
   <path clip-path="url(#SVGID_10_)" fill="#006CAB" d="m22.92131,30.69769c-0.091,-0.09595 -0.177,-0.18994 -0.28,-0.31396l-0.198,-0.24298c-0.084,-0.10004 -0.179,-0.23603 -0.253,-0.34803c0.025,-0.03997 0.069,-0.08801 0.116,-0.13202c0.15,-0.12201 0.296,-0.109 0.396,0.01502c0.103,0.12201 0.13,0.27197 -0.022,0.39502c-0.032,0.02496 -0.065,0.04797 -0.096,0.06299l0.073,0.18499c0.064,-0.03302 0.131,-0.08001 0.193,-0.12902c0.323,-0.258 0.331,-0.586 0.154,-0.80298c-0.17,-0.206 -0.407,-0.22303 -0.673,-0.00598c-0.052,0.05401 -0.126,0.11596 -0.221,0.19397c-0.09,0.08203 -0.18,0.15203 -0.25,0.20703c-0.068,0.05395 -0.155,0.11895 -0.245,0.19397l0.061,0.07501l0.124,-0.06598c0.092,0.091 0.176,0.18701 0.28,0.30701l0.256,0.33795c0.103,0.12305 0.177,0.22503 0.251,0.33203l-0.09,0.10602l0.061,0.07696c0.091,-0.07898 0.179,-0.15399 0.272,-0.22699c0.089,-0.07202 0.184,-0.14001 0.324,-0.25097l-0.064,-0.07502l-0.169,0.10596z" id="svg_106"/>
   <path clip-path="url(#SVGID_10_)" fill="#006CAB" d="m25.31861,28.45947c-0.133,-0.04303 -0.518,-0.20001 -0.776,-0.33099l-0.565,-0.26801l-0.123,0.07398c-0.05,0.091 -0.101,0.18701 -0.164,0.28704c0.202,0.391 0.501,0.99897 0.607,1.292l-0.069,0.10296l0.072,0.06702c0.053,-0.05701 0.107,-0.12097 0.166,-0.17499c0.065,-0.06799 0.137,-0.13598 0.205,-0.20501l-0.069,-0.068l-0.108,0.07599l-0.228,-0.39697l0.341,-0.34802c0.122,0.04998 0.29,0.14801 0.398,0.21099l-0.073,0.10999l0.071,0.07001c0.083,-0.08698 0.163,-0.17701 0.246,-0.263c0.082,-0.08197 0.163,-0.16101 0.246,-0.23798l-0.072,-0.06799l-0.105,0.07098zm-1.137,0.29297l-0.277,-0.51599l0.002,-0.00598l0.533,0.25799l-0.258,0.26398z" id="svg_107"/>
   <path clip-path="url(#SVGID_10_)" fill="#006CAB" d="m27.00251,26.37903c-0.104,0.01196 -0.658,0.03497 -0.809,0.03997c0.108,-0.195 0.093,-0.414 -0.08,-0.54498c-0.148,-0.12201 -0.365,-0.143 -0.626,0.19098c-0.064,0.08502 -0.129,0.172 -0.19,0.258c-0.064,0.08599 -0.125,0.169 -0.186,0.24798c-0.058,0.07202 -0.115,0.14203 -0.171,0.211l0.08,0.05902l0.104,-0.09601c0.112,0.07099 0.215,0.14203 0.345,0.23999l0.347,0.26001c0.129,0.09504 0.212,0.17902 0.307,0.26899l-0.066,0.125l0.08,0.05804c0.069,-0.09399 0.14,-0.19 0.21,-0.284c0.07,-0.09204 0.146,-0.17901 0.22,-0.27301l-0.081,-0.05798l-0.1,0.09296c-0.114,-0.06598 -0.218,-0.13898 -0.348,-0.23401l-0.095,-0.086l0.063,-0.09198c0.219,-0.00501 0.602,0.01001 0.878,0.01898c0.075,-0.12897 0.159,-0.263 0.258,-0.383l-0.079,-0.05798l-0.061,0.03803zm-1.124,0.25494c-0.033,0.03803 -0.064,0.07306 -0.093,0.09802l-0.1,-0.07299c-0.1,-0.07502 -0.187,-0.14698 -0.238,-0.19098c0.03,-0.05402 0.057,-0.094 0.114,-0.172c0.11,-0.14301 0.219,-0.16803 0.324,-0.08405c0.128,0.10706 0.118,0.25403 -0.007,0.422" id="svg_108"/>
   <path clip-path="url(#SVGID_10_)" fill="#006CAB" d="m27.91251,23.7149c-0.441,-0.25598 -0.839,-0.11297 -1.117,0.35504c-0.28,0.474 -0.143,0.93 0.235,1.14899c0.418,0.25299 0.839,0.11298 1.118,-0.35602c0.28,-0.46899 0.144,-0.927 -0.236,-1.14801m0.047,1.042c-0.145,0.24603 -0.446,0.27404 -0.719,0.10601c-0.286,-0.16497 -0.408,-0.43896 -0.261,-0.68701c0.148,-0.24298 0.436,-0.268 0.72,-0.10596c0.284,0.16401 0.408,0.443 0.26,0.68696" id="svg_109"/>
   <path clip-path="url(#SVGID_10_)" fill="#006CAB" d="m16.20081,33.06769c-0.169,0 -0.318,0.15204 -0.318,0.33301c0,0.18805 0.149,0.34301 0.318,0.34301c0.189,0 0.344,-0.15496 0.344,-0.34301c0,-0.18097 -0.155,-0.33301 -0.344,-0.33301" id="svg_110"/>
   <path clip-path="url(#SVGID_10_)" fill="#006CAB" d="m3.83421,22.49115c0.182,0 0.336,-0.15497 0.336,-0.33295c0,-0.18805 -0.154,-0.34399 -0.336,-0.34399c-0.178,0 -0.33,0.15594 -0.33,0.34399c0,0.17798 0.152,0.33295 0.33,0.33295" id="svg_111"/>
   <path clip-path="url(#SVGID_10_)" fill="#006CAB" d="m28.63741,22.49115c0.187,0 0.34,-0.15497 0.34,-0.33295c0,-0.18805 -0.153,-0.34399 -0.34,-0.34399c-0.172,0 -0.33,0.15594 -0.33,0.34399c0,0.17798 0.158,0.33295 0.33,0.33295" id="svg_112"/>
  </g>
  <g id="svg_136">
   <defs transform="translate(0.0695888 -0.0695888) translate(-0.208766 0) translate(0.0695888 0) translate(0.139178 0) translate(0.208766 0) translate(0.139178 0.278355) translate(-1.39178 0.139178) translate(0.695888 0) translate(-2.15827 0.28777) translate(2.44604 -0.431655)">
    <rect id="SVGID_17_" x="0.013" y="0.00028" width="133.134" height="38.604"/>
   </defs>
   <clipPath id="SVGID_18_" transform="translate(0.0695888 -0.0695888) translate(-0.208766 0) translate(0.0695888 0) translate(0.139178 0) translate(0.208766 0) translate(0.139178 0.278355) translate(-1.39178 0.139178) translate(0.695888 0) translate(-2.15827 0.28777) translate(2.44604 -0.431655)">
    <use xlink:href="#SVGID_17_" overflow="visible" id="svg_137" y="0.20406" x="0.00941"/>
   </clipPath>
   <path clip-path="url(#SVGID_18_)" fill="#006CAB" d="m4.29861,12.56018c0,0.65002 -0.07,5.67004 3.074,10.85803c2.826,4.68598 7.034,6.74799 8.828,7.39801c1.813,-0.65002 6.019,-2.71203 8.843,-7.39801c3.149,-5.18799 3.074,-10.20801 3.074,-10.85803l0,-12.211l-23.819,-0.00098l0,12.21198z" id="svg_138"/>
   <path clip-path="url(#SVGID_18_)" fill="#006CAB" d="m29.54241,18.29925l-0.116,0.39405c-0.139,0.46997 -0.294,0.92596 -0.45601,1.36401l-1.02699,-0.92303l-0.125,0.37201c-0.549,1.61999 -1.26,3.14599 -2.121,4.52197c-2.236,3.58105 -5.397,6.19403 -9.114,7.552c0,0 -0.268,0.09399 -0.383,0.13605c-0.106,-0.04206 -0.37,-0.13605 -0.37,-0.13605c-3.715,-1.362 -6.871,-3.97095 -9.109,-7.552c-0.86,-1.36896 -1.582,-2.89496 -2.121,-4.52197l-0.126,-0.37201l-0.297,0.26098l-0.726,0.65601c-0.16,-0.43799 -0.318,-0.88696 -0.459,-1.35797l-0.114,-0.39203l-0.302,0.27398l-2.566,2.31501l0.047,0.15503c0.607,1.96002 1.61,3.96997 2.355,5.30798l0.15,0.28101l1.066,-0.95398c0.04,0.07196 0.074,0.14898 0.118,0.21698c2.658,4.24798 6.421,7.35101 10.882,8.98303l1.572,0.578l1.593,-0.578c4.461,-1.63202 8.215,-4.73505 10.874,-8.98004c0.042,-0.068 0.08199,-0.14801 0.12399,-0.21796l1.05101,0.95197l0.16,-0.28101c0.741,-1.32501 1.741,-3.32098 2.353,-5.31l0.048,-0.15301l-2.861,-2.59101z" id="svg_139"/>
  </g>
  <g id="svg_140">
   <defs transform="translate(0.0695888 -0.0695888) translate(-0.208766 0) translate(0.0695888 0) translate(0.139178 0) translate(0.208766 0) translate(0.139178 0.278355) translate(-1.39178 0.139178) translate(0.695888 0) translate(-2.15827 0.28777) translate(2.44604 -0.431655)">
    <rect id="SVGID_19_" y="0.00028" width="133.147" height="38.604"/>
   </defs>
   <clipPath id="SVGID_20_" transform="translate(0.0695888 -0.0695888) translate(-0.208766 0) translate(0.0695888 0) translate(0.139178 0) translate(0.208766 0) translate(0.139178 0.278355) translate(-1.39178 0.139178) translate(0.695888 0) translate(-2.15827 0.28777) translate(2.44604 -0.431655)">
    <use xlink:href="#SVGID_19_" overflow="visible" id="svg_141" y="0.20406" x="0.00941"/>
   </clipPath>
   <path clip-path="url(#SVGID_20_)" fill="#FFFFFF" d="m26.11751,5.71527c0,0.16803 -0.041,0.33405 -0.111,0.47406c-0.038,0.08698 -0.101,0.16596 -0.174,0.23798c-0.102,0.044 -0.199,0.10199 -0.284,0.17498c-0.006,-0.039 -0.013,-0.08197 -0.013,-0.11798c0,-0.17401 0.037,-0.33203 0.116,-0.47601c0.097,-0.19098 0.263,-0.33301 0.448,-0.43799c0.007,0.047 0.018,0.09699 0.018,0.14496" id="svg_142"/>
   <path clip-path="url(#SVGID_20_)" fill="#FFFFFF" d="m24.18161,8.94287l0,0c0.208,-0.02997 0.419,0.013 0.604,0.10901c-0.147,0.15503 -0.333,0.26001 -0.543,0.29199c-0.21,0.03101 -0.426,-0.01495 -0.629,-0.10699c0.168,-0.15296 0.356,-0.263 0.568,-0.29401" id="svg_143"/>
   <path clip-path="url(#SVGID_20_)" fill="#FFFFFF" d="m23.15801,9.26428c-0.001,-0.01599 -0.004,-0.03094 -0.004,-0.047c0,-0.19897 0.053,-0.38494 0.154,-0.54394l0.003,-0.00104c0.107,-0.16998 0.262,-0.294 0.461,-0.38c0.003,0.01904 0.006,0.039 0.006,0.057c0,0.19501 -0.052,0.37 -0.151,0.529c-0.1,0.18103 -0.266,0.30401 -0.469,0.38598" id="svg_144"/>
   <path clip-path="url(#SVGID_20_)" fill="#FFFFFF" d="m23.94591,8.15716c0.071,-0.12396 0.174,-0.22998 0.298,-0.32495c0.025,0.09497 0.06,0.19098 0.06,0.28199c0,0.10797 -0.017,0.21301 -0.051,0.315c-0.048,0.14099 -0.137,0.25897 -0.253,0.36902c-0.04,0.01196 -0.085,0.02795 -0.129,0.04498c-0.001,-0.00903 -0.005,-0.01801 -0.006,-0.02801c0.085,-0.19697 0.112,-0.42096 0.081,-0.65803" id="svg_145"/>
   <path clip-path="url(#SVGID_20_)" fill="#FFFFFF" d="m24.39321,7.65124c0.042,-0.14099 0.118,-0.26898 0.22,-0.39196c0.09,0.16101 0.146,0.32898 0.146,0.50403c0,0.02496 0,0.05297 -0.003,0.07995c-0.01,0.15003 -0.066,0.28504 -0.151,0.41803c-0.044,0.02301 -0.086,0.04999 -0.125,0.07898c-0.004,-0.008 -0.009,-0.01697 -0.012,-0.02502c0.038,-0.21796 0.014,-0.43897 -0.075,-0.66401" id="svg_146"/>
   <path clip-path="url(#SVGID_20_)" fill="#FFFFFF" d="m24.70821,7.04669c0.007,-0.14697 0.048,-0.284 0.102,-0.42395c0.149,0.15601 0.255,0.33399 0.285,0.53296c0.005,0.04602 0.008,0.091 0.008,0.13605c0,0.104 -0.022,0.20196 -0.058,0.30298c-0.036,0.03497 -0.07,0.06897 -0.101,0.10699c-0.008,-0.008 -0.014,-0.01599 -0.018,-0.02502c-0.019,-0.21997 -0.096,-0.43 -0.218,-0.63001" id="svg_147"/>
   <path clip-path="url(#SVGID_20_)" fill="#FFFFFF" d="m24.85721,6.38995c-0.014,-0.06799 -0.023,-0.13397 -0.023,-0.20294c0,-0.07001 0.023,-0.15002 0.041,-0.22803c0.179,0.12 0.324,0.26203 0.399,0.44599c0.048,0.11999 0.07,0.24798 0.07,0.37298c0,0.02002 -0.005,0.03803 -0.006,0.05805c-0.032,0.04297 -0.056,0.08801 -0.08,0.13501c-0.009,-0.00702 -0.017,-0.01203 -0.025,-0.02002c-0.067,-0.20099 -0.193,-0.396 -0.376,-0.56104" id="svg_148"/>
   <path clip-path="url(#SVGID_20_)" fill="#FFFFFF" d="m24.86991,5.72876c-0.065,-0.13794 -0.094,-0.27899 -0.095,-0.44196c0.2,0.07697 0.379,0.19397 0.497,0.35102c0.085,0.11798 0.139,0.25598 0.164,0.40899c-0.018,0.04798 -0.033,0.09699 -0.044,0.14496c-0.012,-0.00299 -0.02,-0.00598 -0.031,-0.00897c-0.112,-0.185 -0.283,-0.34503 -0.491,-0.45404" id="svg_149"/>
   <path clip-path="url(#SVGID_20_)" fill="#FFFFFF" d="m25.33701,5.40265c-0.013,-0.00098 -0.025,-0.00299 -0.038,-0.00598c-0.15,-0.15198 -0.345,-0.26599 -0.562,-0.33002c-0.09,-0.11298 -0.15,-0.24597 -0.191,-0.396c0.212,0.02503 0.394,0.09204 0.545,0.22303c0.111,0.09198 0.195,0.22302 0.254,0.36999c-0.006,0.04602 -0.008,0.09302 -0.008,0.13898" id="svg_150"/>
   <path clip-path="url(#SVGID_20_)" fill="#FFFFFF" d="m25.07661,4.65839c-0.187,-0.12098 -0.391,-0.18598 -0.637,-0.193c-0.117,-0.09594 -0.211,-0.21295 -0.291,-0.354c0.218,-0.02295 0.423,0.00806 0.607,0.10101c0.119,0.07001 0.229,0.16699 0.315,0.29505c0.006,0.04797 0.016,0.09796 0.027,0.14794c-0.006,0.00104 -0.014,0.00104 -0.021,0.003" id="svg_151"/>
   <path clip-path="url(#SVGID_20_)" fill="#FFFFFF" d="m24.66641,8.79864c-0.105,-0.02996 -0.214,-0.04797 -0.319,-0.04895c0.119,-0.16803 0.272,-0.30999 0.44,-0.38702c0.198,-0.08002 0.414,-0.08398 0.632,-0.03802c-0.122,0.18701 -0.276,0.33105 -0.474,0.406c-0.096,0.04004 -0.182,0.06104 -0.279,0.06799" id="svg_152"/>
   <path clip-path="url(#SVGID_20_)" fill="#FFFFFF" d="m25.23821,8.10699c-0.112,-0.00494 -0.223,0.00306 -0.331,0.02704c0.078,-0.19201 0.193,-0.36798 0.358,-0.48401l0,-0.00201c0.168,-0.12299 0.38,-0.185 0.608,-0.19098c-0.078,0.21802 -0.197,0.40497 -0.367,0.526c-0.083,0.05298 -0.173,0.09302 -0.268,0.12396" id="svg_153"/>
   <path clip-path="url(#SVGID_20_)" fill="#FFFFFF" d="m25.86491,7.11676c-0.066,0.07703 -0.147,0.14105 -0.235,0.19202c-0.107,0.02099 -0.21,0.05304 -0.305,0.09698c0.027,-0.20599 0.096,-0.40198 0.228,-0.56195c0.137,-0.15002 0.332,-0.25201 0.531,-0.30902c-0.025,0.224 -0.083,0.422 -0.219,0.58197" id="svg_154"/>
   <path clip-path="url(#SVGID_20_)" fill="#FFFFFF" d="m25.97341,5.02405c0,0.08001 -0.01,0.16003 -0.028,0.23706c-0.022,0.09698 -0.066,0.18896 -0.122,0.27197c-0.088,0.06403 -0.167,0.14197 -0.233,0.232c-0.045,-0.12403 -0.077,-0.24 -0.077,-0.36298c0,-0.08099 0.012,-0.16205 0.032,-0.24103c0.051,-0.20502 0.178,-0.37799 0.345,-0.531c0.05,0.13501 0.083,0.26898 0.083,0.39398" id="svg_155"/>
   <path clip-path="url(#SVGID_20_)" fill="#FFFFFF" d="m25.24271,4.35998c0,-0.19995 0.083,-0.40094 0.208,-0.58996c0.125,0.18402 0.204,0.38702 0.204,0.59399l0,0.00403c0,0.09998 -0.023,0.198 -0.054,0.29297c-0.07,0.08502 -0.126,0.17902 -0.171,0.27301c-0.114,-0.17401 -0.187,-0.36401 -0.187,-0.565l0,-0.00904z" id="svg_156"/>
   <path clip-path="url(#SVGID_20_)" fill="#FFFFFF" d="m24.82111,3.03436c0.167,0.14801 0.293,0.32703 0.341,0.53302c0.016,0.073 0.027,0.14398 0.027,0.21698c0,0.02204 -0.004,0.04401 -0.006,0.06403c-0.049,0.10602 -0.088,0.21399 -0.107,0.32397c-0.15,-0.14697 -0.27,-0.31897 -0.306,-0.50696c-0.012,-0.07501 -0.018,-0.15301 -0.018,-0.22802c0,-0.13501 0.023,-0.27301 0.069,-0.40302" id="svg_157"/>
   <path clip-path="url(#SVGID_20_)" fill="#FFFFFF" d="m24.70291,3.97436c-0.007,0.00306 -0.018,0.00501 -0.029,0.00806c-0.211,-0.073 -0.441,-0.08704 -0.677,-0.04004c-0.132,-0.06396 -0.255,-0.15997 -0.359,-0.27197c0.208,-0.07501 0.419,-0.09204 0.615,-0.04504c0.144,0.03802 0.273,0.10803 0.389,0.21002c0.019,0.04699 0.041,0.09503 0.061,0.13897" id="svg_158"/>
   <path clip-path="url(#SVGID_20_)" fill="#FFFFFF" d="m24.05421,2.46539c0.199,0.10504 0.362,0.24903 0.457,0.44306c0.043,0.08496 0.07,0.17297 0.089,0.26397c-0.024,0.11298 -0.034,0.22498 -0.029,0.34003c-0.184,-0.11005 -0.339,-0.24902 -0.435,-0.42505c-0.068,-0.13898 -0.101,-0.29596 -0.101,-0.46197c0,-0.055 0.013,-0.10901 0.019,-0.16004" id="svg_159"/>
   <path clip-path="url(#SVGID_20_)" fill="#FFFFFF" d="m23.82371,2.87317c0.022,0.018 0.042,0.03705 0.064,0.05701c0.022,0.083 0.047,0.15899 0.086,0.23504l0,0.00195c0.04,0.07703 0.092,0.14905 0.149,0.21802c-0.198,-0.01397 -0.382,-0.073 -0.538,-0.18097c-0.161,-0.12304 -0.28,-0.30603 -0.357,-0.51904c0.229,0.00201 0.421,0.06604 0.596,0.18799" id="svg_160"/>
   <path clip-path="url(#SVGID_20_)" fill="#FFFFFF" d="m20.99661,7.42456c0.118,0 0.224,0.10602 0.224,0.23804c0,0.03698 -0.015,0.07501 -0.026,0.09601c-0.021,0.04199 -0.034,0.091 0.054,0.091l0.32,0l0,-4.04602c0,-0.55499 0.044,-1.20801 0.362,-1.85199l0.092,-0.18103l0.092,0.18103c0.304,0.64996 0.348,1.30096 0.348,1.85199l0,4.04602l0.318,0c0.09,0 0.075,-0.04901 0.054,-0.091c-0.011,-0.021 -0.024,-0.05903 -0.024,-0.09601c0,-0.13202 0.107,-0.23804 0.239,-0.23804c0.136,0 0.241,0.11603 0.241,0.24603c0,0.16602 -0.127,0.33802 -0.427,0.33802l-0.528,0c0.077,0.19799 0.122,0.47399 0.122,0.76898c0,0.37903 -0.074,0.708 -0.174,0.91498c0.389,-0.06299 0.694,-0.15998 0.97,-0.31196l0.026,-0.01605l0.073,0.17304l-0.02,0.01196c-0.249,0.13904 -0.502,0.20001 -0.803,0.27106c0,0 -0.215,0.04095 -0.363,0.06695c0.042,0.039 0.063,0.09204 0.063,0.15705c0,0.11895 -0.093,0.21399 -0.218,0.21399c-0.122,0 -0.223,-0.09504 -0.223,-0.21399c0,-0.06501 0.029,-0.11805 0.067,-0.15705c-0.158,-0.02697 -0.383,-0.06695 -0.39,-0.06695c-0.289,-0.07105 -0.522,-0.13202 -0.773,-0.27106l-0.021,-0.01196l0.076,-0.17304l0.024,0.01605c0.283,0.15296 0.585,0.25196 0.99,0.31501c-0.116,-0.20801 -0.19,-0.53705 -0.19,-0.91803c0,-0.29499 0.045,-0.57099 0.121,-0.76898l-0.527,0c-0.282,0 -0.413,-0.17499 -0.413,-0.33802c0,-0.13 0.111,-0.24603 0.244,-0.24603" id="svg_161"/>
   <path clip-path="url(#SVGID_20_)" fill="#FFFFFF" d="m20.16571,8.81329c-0.002,0.01203 -0.003,0.02002 -0.006,0.03003c-0.042,-0.01703 -0.084,-0.03302 -0.131,-0.04498c-0.113,-0.11102 -0.194,-0.22803 -0.234,-0.37103c-0.033,-0.09998 -0.052,-0.20496 -0.052,-0.31299c0,-0.09101 0.034,-0.18701 0.058,-0.28302c0.11,0.09503 0.213,0.20202 0.284,0.32605c-0.033,0.23596 -0.003,0.461 0.081,0.65594" id="svg_162"/>
   <path clip-path="url(#SVGID_20_)" fill="#FFFFFF" d="m19.60821,4.46509c-0.244,0.005 -0.466,0.07202 -0.651,0.19305c-0.008,-0.00104 -0.016,-0.00104 -0.025,-0.00305c0.014,-0.04999 0.024,-0.099 0.029,-0.14795c0.089,-0.12701 0.197,-0.22504 0.329,-0.29401c0.185,-0.09399 0.391,-0.125 0.592,-0.104c-0.069,0.14301 -0.159,0.26099 -0.274,0.35596" id="svg_163"/>
   <path clip-path="url(#SVGID_20_)" fill="#FFFFFF" d="m19.58271,8.31488c-0.005,0.00806 -0.01,0.01801 -0.014,0.02502c-0.041,-0.02801 -0.081,-0.05499 -0.125,-0.08001c-0.084,-0.13098 -0.14,-0.26697 -0.154,-0.41901c-0.002,-0.02698 -0.004,-0.05194 -0.004,-0.07898c0,-0.17401 0.059,-0.34198 0.147,-0.50299c0.105,0.12402 0.181,0.25 0.22,0.39203c-0.088,0.22497 -0.11,0.44598 -0.07,0.66394" id="svg_164"/>
   <path clip-path="url(#SVGID_20_)" fill="#FFFFFF" d="m18.93731,7.15588c0.031,-0.19897 0.138,-0.37695 0.283,-0.53296c0.069,0.14002 0.115,0.27698 0.119,0.42298c-0.136,0.20099 -0.216,0.41101 -0.232,0.63104c-0.007,0.00897 -0.012,0.01599 -0.019,0.02496c-0.033,-0.03796 -0.067,-0.07196 -0.103,-0.10699c-0.034,-0.10101 -0.058,-0.19898 -0.058,-0.30298c0,-0.04504 0.004,-0.09003 0.01,-0.13605" id="svg_165"/>
   <path clip-path="url(#SVGID_20_)" fill="#FFFFFF" d="m18.79751,6.95135c-0.006,0.00702 -0.014,0.01203 -0.024,0.01905c-0.023,-0.04602 -0.05,-0.09101 -0.077,-0.13703c-0.004,-0.01696 -0.009,-0.03601 -0.009,-0.05499c0,-0.125 0.023,-0.25299 0.071,-0.37298c0.074,-0.185 0.22,-0.32801 0.398,-0.44703c0.015,0.07801 0.039,0.159 0.039,0.22901c0,0.06799 -0.008,0.13501 -0.024,0.203c-0.179,0.164 -0.305,0.35901 -0.374,0.56097" id="svg_166"/>
   <path clip-path="url(#SVGID_20_)" fill="#FFFFFF" d="m18.94411,4.89398c0.146,-0.13098 0.343,-0.198 0.56,-0.22296c-0.044,0.14996 -0.104,0.28302 -0.193,0.39398c-0.233,0.06604 -0.427,0.17999 -0.579,0.33203c-0.013,0.00098 -0.024,0.00501 -0.034,0.00598c0,-0.04602 -0.004,-0.09301 -0.008,-0.13897c0.055,-0.14905 0.14,-0.27802 0.254,-0.37006" id="svg_167"/>
   <path clip-path="url(#SVGID_20_)" fill="#FFFFFF" d="m18.76191,5.63818c0.115,-0.15796 0.292,-0.27398 0.5,-0.35199c-0.001,0.16101 -0.035,0.305 -0.1,0.44001c-0.21,0.112 -0.378,0.27203 -0.493,0.45501c-0.01,0.00501 -0.02,0.00702 -0.026,0.01099c-0.01,-0.04797 -0.025,-0.09796 -0.041,-0.146c0.021,-0.15301 0.072,-0.29101 0.16,-0.40802" id="svg_168"/>
   <path clip-path="url(#SVGID_20_)" fill="#FFFFFF" d="m18.70701,7.4054c-0.089,-0.04297 -0.181,-0.07496 -0.287,-0.09595c-0.09,-0.052 -0.169,-0.11603 -0.237,-0.193c-0.139,-0.16003 -0.211,-0.35705 -0.237,-0.58105c0.219,0.05701 0.413,0.15802 0.549,0.30902c0.121,0.16003 0.184,0.35498 0.212,0.56098" id="svg_169"/>
   <path clip-path="url(#SVGID_20_)" fill="#FFFFFF" d="m18.76731,7.64789l0.001,0.00201c0.164,0.11603 0.277,0.29102 0.356,0.48505c-0.107,-0.02503 -0.218,-0.03302 -0.332,-0.02802c-0.094,-0.031 -0.178,-0.07104 -0.252,-0.125c-0.17,-0.11999 -0.289,-0.307 -0.364,-0.52502c0.228,0.005 0.427,0.06799 0.591,0.19098" id="svg_170"/>
   <path clip-path="url(#SVGID_20_)" fill="#FFFFFF" d="m19.24211,8.36218l0,0c0.187,0.078 0.341,0.22003 0.46,0.388c-0.109,0 -0.214,0.01801 -0.32,0.04804c-0.101,-0.00702 -0.202,-0.02698 -0.296,-0.06702c-0.199,-0.07599 -0.353,-0.21997 -0.469,-0.40601c0.213,-0.04699 0.428,-0.04296 0.625,0.03699" id="svg_171"/>
   <path clip-path="url(#SVGID_20_)" fill="#FFFFFF" d="m19.85581,8.94287l0.002,0c0.204,0.03101 0.392,0.14105 0.557,0.29401c-0.2,0.09002 -0.414,0.138 -0.613,0.10699c-0.204,-0.03198 -0.392,-0.13696 -0.557,-0.29199c0.204,-0.09601 0.414,-0.13898 0.611,-0.10901" id="svg_172"/>
   <path clip-path="url(#SVGID_20_)" fill="#FFFFFF" d="m20.40461,8.87866c-0.098,-0.15997 -0.15,-0.33398 -0.15,-0.52997c0,-0.01898 0.005,-0.03698 0.005,-0.057c0.2,0.08697 0.369,0.21002 0.482,0.38098c0.1,0.15802 0.151,0.34601 0.151,0.544c0,0.016 -0.002,0.03205 -0.002,0.04804c-0.204,-0.08301 -0.374,-0.20599 -0.486,-0.38605" id="svg_173"/>
   <path clip-path="url(#SVGID_20_)" fill="#FFFFFF" d="m20.06001,3.16479c0.036,-0.07495 0.063,-0.15094 0.083,-0.23498c0.021,-0.01898 0.043,-0.039 0.067,-0.05701c0.174,-0.12195 0.383,-0.185 0.609,-0.18799c-0.077,0.21399 -0.196,0.39704 -0.371,0.51899c-0.157,0.10803 -0.34,0.16705 -0.539,0.182c0.054,-0.06897 0.107,-0.14197 0.149,-0.21899l0.002,-0.00202z" id="svg_174"/>
   <path clip-path="url(#SVGID_20_)" fill="#FFFFFF" d="m19.53761,2.90814c0.094,-0.19495 0.257,-0.33795 0.441,-0.44299c0.007,0.05102 0.02,0.10504 0.02,0.16003c0,0.16602 -0.036,0.323 -0.106,0.46198c-0.082,0.17602 -0.229,0.315 -0.415,0.42499c0.006,-0.11396 -0.004,-0.22699 -0.028,-0.33997c0.016,-0.091 0.045,-0.17902 0.088,-0.26404" id="svg_175"/>
   <path clip-path="url(#SVGID_20_)" fill="#FFFFFF" d="m19.40381,3.83527c0.115,-0.10199 0.244,-0.172 0.391,-0.20997c0.184,-0.04699 0.391,-0.03002 0.597,0.04499c-0.103,0.112 -0.226,0.20801 -0.358,0.27301c-0.224,-0.04798 -0.45,-0.034 -0.661,0.039c-0.009,-0.00299 -0.018,-0.00501 -0.028,-0.008c0.024,-0.044 0.04,-0.09198 0.059,-0.13903" id="svg_176"/>
   <path clip-path="url(#SVGID_20_)" fill="#FFFFFF" d="m18.86971,3.56659c0.046,-0.20496 0.172,-0.38696 0.341,-0.53198c0.05,0.13 0.085,0.26702 0.085,0.40203c0,0.07599 -0.006,0.15296 -0.025,0.22901c-0.045,0.18799 -0.161,0.35895 -0.314,0.50598c-0.021,-0.10999 -0.059,-0.21802 -0.11,-0.323c-0.002,-0.02002 -0.002,-0.04498 -0.002,-0.065c0,-0.073 0.008,-0.14301 0.025,-0.21704" id="svg_177"/>
   <path clip-path="url(#SVGID_20_)" fill="#FFFFFF" d="m18.39461,4.36395c0,-0.20697 0.077,-0.40997 0.194,-0.59399c0.119,0.18902 0.199,0.388 0.199,0.59002l0,0.00898c0,0.20105 -0.072,0.39105 -0.18,0.565c-0.038,-0.09399 -0.09,-0.18799 -0.159,-0.27295c-0.034,-0.09503 -0.054,-0.19305 -0.054,-0.29303l0,-0.00403z" id="svg_178"/>
   <path clip-path="url(#SVGID_20_)" fill="#FFFFFF" d="m18.15591,4.63049c0.169,0.15302 0.296,0.32605 0.349,0.53003c0.019,0.07898 0.028,0.16101 0.028,0.24103c0,0.12396 -0.03,0.23999 -0.073,0.36298c-0.065,-0.08899 -0.148,-0.16999 -0.234,-0.23102c-0.055,-0.08301 -0.099,-0.17499 -0.124,-0.27301c-0.02,-0.07697 -0.03,-0.15698 -0.03,-0.23596c0,-0.125 0.035,-0.26099 0.084,-0.39405" id="svg_179"/>
   <path clip-path="url(#SVGID_20_)" fill="#FFFFFF" d="m17.93481,5.57025c0.198,0.10303 0.365,0.24701 0.464,0.43805c0.075,0.14398 0.114,0.302 0.114,0.47595c0,0.03601 -0.008,0.07904 -0.013,0.11603c-0.086,-0.07098 -0.182,-0.13 -0.285,-0.17297c-0.073,-0.07202 -0.134,-0.151 -0.181,-0.23804c-0.081,-0.14002 -0.118,-0.30597 -0.118,-0.474c0,-0.04797 0.012,-0.09796 0.019,-0.14502" id="svg_180"/>
   <path clip-path="url(#SVGID_20_)" fill="#006CAB" d="m22.27341,3.80389c0,-0.45996 -0.044,-0.99298 -0.251,-1.52697l0,5.32501l0.251,0l0,-3.79804z" id="svg_181"/>
   <path clip-path="url(#SVGID_20_)" fill="#FFFFFF" d="m12.24831,8.16009c0.422,0.11103 0.875,0.22101 1.321,0.19001l0,-5.47596l0,-0.11499c-0.479,0.029 -0.948,-0.08606 -1.387,-0.20105c-0.393,-0.096 -0.765,-0.18896 -1.094,-0.17395c-0.468,0.01398 -0.715,0.14899 -0.875,0.28894l0,0.20105l0,5.33997c0.238,-0.15198 0.512,-0.22601 0.866,-0.23596c0.367,-0.01502 0.754,0.07696 1.169,0.18194" id="svg_182"/>
   <path clip-path="url(#SVGID_20_)" fill="#FFFFFF" d="m9.08951,7.97784c0.353,0.01001 0.627,0.08503 0.862,0.23706l0,-5.341l0,-0.20105c-0.161,-0.14496 -0.405,-0.27496 -0.872,-0.289c-0.338,-0.01495 -0.701,0.07904 -1.094,0.17401c-0.446,0.11603 -0.904,0.23102 -1.384,0.20099l0,0.11505l0,5.47595c0.443,0.03205 0.889,-0.07898 1.319,-0.19c0.412,-0.104 0.797,-0.19696 1.169,-0.18201" id="svg_183"/>
   <path clip-path="url(#SVGID_20_)" fill="#FFFFFF" d="m14.27241,2.87366l-0.359,0l0.031,0.125c0.003,0.00903 0.005,0.02703 0.005,0.039l0,5.75403c-0.282,0 -3.394,-0.00702 -3.567,-0.00702c-0.064,0.10901 -0.142,0.12799 -0.307,0.12799c-0.15,0 -0.216,-0.01898 -0.281,-0.12799c-0.158,0 -3.023,0.00702 -3.584,0.00702l0,-5.75403c0,-0.01196 0,-0.02997 0.003,-0.04096l0.031,-0.12304l-0.483,0l0,6.36602l3.845,0c0.08,0.15198 0.248,0.27698 0.469,0.27698c0.238,0 0.405,-0.125 0.488,-0.27698l3.845,0l0,-6.36602l-0.136,0z" id="svg_184"/>
   <path clip-path="url(#SVGID_20_)" fill="#006CAB" d="m11.07961,3.72845c-0.204,0.00806 -0.38,0.03705 -0.539,0.08704l0,0.28601c0.141,-0.05304 0.314,-0.09399 0.548,-0.10303c0.328,-0.01001 0.699,0.08301 1.089,0.18299c0.331,0.08703 0.681,0.169 1.041,0.195l0,-0.26397c-0.331,-0.02698 -0.664,-0.10804 -0.972,-0.19403c-0.414,-0.10297 -0.803,-0.20197 -1.167,-0.19001" id="svg_185"/>
   <path clip-path="url(#SVGID_20_)" fill="#006CAB" d="m11.07961,6.97308c-0.204,0.00605 -0.38,0.03504 -0.539,0.08606l0,0.28595c0.141,-0.05499 0.314,-0.09601 0.548,-0.09997c0.325,-0.01599 0.697,0.08001 1.088,0.17602c0.33,0.086 0.68,0.172 1.042,0.19696l0,-0.263c-0.333,-0.02301 -0.665,-0.10602 -0.975,-0.19201c-0.411,-0.10199 -0.8,-0.20197 -1.164,-0.19001" id="svg_186"/>
   <path clip-path="url(#SVGID_20_)" fill="#006CAB" d="m11.07961,6.32227c-0.204,0.00805 -0.38,0.03601 -0.539,0.08502l0,0.28802c0.14,-0.05499 0.314,-0.09601 0.548,-0.10303c0.328,-0.01196 0.699,0.08301 1.091,0.18c0.329,0.08502 0.68,0.17303 1.039,0.19604l0,-0.26202c-0.331,-0.02503 -0.664,-0.11102 -0.971,-0.19403c-0.414,-0.10498 -0.801,-0.20496 -1.168,-0.19" id="svg_187"/>
   <path clip-path="url(#SVGID_20_)" fill="#006CAB" d="m11.07961,4.37689c-0.204,0.00702 -0.38,0.03504 -0.539,0.08502l0,0.28699c0.14,-0.05298 0.314,-0.09296 0.548,-0.10199c0.325,-0.01099 0.695,0.08099 1.086,0.18201c0.331,0.08697 0.682,0.16803 1.044,0.19501l0,-0.26398c-0.333,-0.02503 -0.668,-0.11005 -0.977,-0.19202c-0.412,-0.10602 -0.798,-0.20502 -1.162,-0.19104" id="svg_188"/>
   <path clip-path="url(#SVGID_20_)" fill="#006CAB" d="m11.07961,5.67834c-0.204,0.00202 -0.38,0.02802 -0.539,0.07703l0,0.28601c0.139,-0.052 0.312,-0.091 0.545,-0.09399c0.328,-0.01099 0.698,0.08099 1.088,0.18097c0.329,0.07904 0.683,0.17004 1.045,0.19403l0,-0.263c-0.335,-0.02503 -0.668,-0.10901 -0.98,-0.19202c-0.41,-0.104 -0.795,-0.20197 -1.159,-0.18903" id="svg_189"/>
   <path clip-path="url(#SVGID_20_)" fill="#006CAB" d="m12.24631,3.26855c-0.414,-0.10296 -0.803,-0.19494 -1.167,-0.18396c-0.204,0.00501 -0.379,0.03199 -0.538,0.081l0,0.28601c0.139,-0.05402 0.314,-0.094 0.547,-0.10199c0.328,-0.01203 0.699,0.08099 1.089,0.18097c0.332,0.08899 0.681,0.17303 1.041,0.19403l0,-0.263c-0.331,-0.026 -0.664,-0.10803 -0.972,-0.19306" id="svg_190"/>
   <path clip-path="url(#SVGID_20_)" fill="#006CAB" d="m7.92431,6.51556c-0.323,0.08002 -0.643,0.16504 -0.978,0.19104l0,0.26398c0.365,-0.02496 0.7,-0.11298 1.044,-0.198c0.393,-0.09698 0.751,-0.19201 1.089,-0.17999c0.234,0.00702 0.412,0.04602 0.551,0.10199l0,-0.28699c-0.161,-0.04901 -0.336,-0.078 -0.541,-0.08502c-0.372,-0.013 -0.752,0.08502 -1.165,0.19299" id="svg_191"/>
   <path clip-path="url(#SVGID_20_)" fill="#006CAB" d="m7.93161,5.86768c-0.327,0.083 -0.649,0.16705 -0.985,0.19403l0,0.26098c0.367,-0.02398 0.703,-0.11596 1.051,-0.19397c0.388,-0.10003 0.748,-0.19201 1.082,-0.182c0.234,0.00396 0.412,0.04296 0.551,0.09796l0,-0.28595c-0.161,-0.04901 -0.338,-0.07801 -0.541,-0.08002c-0.37,-0.013 -0.749,0.08502 -1.158,0.18897" id="svg_192"/>
   <path clip-path="url(#SVGID_20_)" fill="#006CAB" d="m11.07961,5.02649c-0.204,0.00604 -0.38,0.03503 -0.539,0.08502l0,0.28601c0.14,-0.05102 0.314,-0.09302 0.548,-0.09997c0.328,-0.013 0.699,0.07995 1.091,0.18298c0.329,0.08197 0.68,0.16498 1.039,0.19299l0,-0.26202c-0.331,-0.026 -0.664,-0.11096 -0.972,-0.19501c-0.413,-0.10498 -0.8,-0.20294 -1.167,-0.19" id="svg_193"/>
   <path clip-path="url(#SVGID_20_)" fill="#006CAB" d="m7.92521,7.16455c-0.323,0.08405 -0.644,0.16705 -0.979,0.19l0,0.26502c0.365,-0.02497 0.701,-0.11298 1.045,-0.19898c0.392,-0.09601 0.75,-0.19104 1.088,-0.17499c0.235,0.00397 0.41,0.04297 0.551,0.09797l0,-0.28498c-0.161,-0.04998 -0.337,-0.08001 -0.541,-0.086c-0.372,-0.01202 -0.752,0.08899 -1.164,0.19196" id="svg_194"/>
   <path clip-path="url(#SVGID_20_)" fill="#006CAB" d="m7.92311,3.26855c-0.322,0.08503 -0.642,0.16803 -0.977,0.19306l0,0.263c0.363,-0.021 0.7,-0.10504 1.045,-0.19403c0.392,-0.09998 0.75,-0.193 1.089,-0.18097c0.234,0.00995 0.411,0.04797 0.551,0.10199l0,-0.28504c-0.162,-0.04998 -0.337,-0.07696 -0.538,-0.08197c-0.376,-0.01098 -0.758,0.081 -1.17,0.18396" id="svg_195"/>
   <path clip-path="url(#SVGID_20_)" fill="#006CAB" d="m7.92311,3.91888c-0.322,0.08503 -0.642,0.16901 -0.977,0.19403l0,0.26398c0.363,-0.02698 0.7,-0.10596 1.045,-0.19598c0.392,-0.099 0.75,-0.19202 1.089,-0.18299c0.234,0.01001 0.409,0.04902 0.551,0.10297l0,-0.28497c-0.162,-0.05103 -0.338,-0.08002 -0.542,-0.08698c-0.372,-0.01202 -0.754,0.08698 -1.166,0.18994" id="svg_196"/>
   <path clip-path="url(#SVGID_20_)" fill="#006CAB" d="m7.92431,5.21686c-0.323,0.08404 -0.643,0.16803 -0.978,0.19305l0,0.26099c0.365,-0.02503 0.7,-0.10803 1.044,-0.193c0.393,-0.10003 0.751,-0.19299 1.089,-0.17999c0.234,0.00696 0.412,0.047 0.551,0.09998l0,-0.284c-0.161,-0.052 -0.336,-0.08099 -0.537,-0.08697c-0.376,-0.01404 -0.756,0.08496 -1.169,0.18994" id="svg_197"/>
   <path clip-path="url(#SVGID_20_)" fill="#006CAB" d="m7.93161,4.56787c-0.328,0.08405 -0.651,0.16705 -0.985,0.19305l0,0.26301c0.367,-0.02503 0.703,-0.10804 1.051,-0.19501c0.388,-0.10102 0.748,-0.193 1.082,-0.18201c0.234,0.00897 0.412,0.04797 0.551,0.099l0,-0.284c-0.161,-0.04998 -0.337,-0.078 -0.537,-0.08502c-0.374,-0.01398 -0.753,0.08502 -1.162,0.19098" id="svg_198"/>
   <polygon clip-path="url(#SVGID_20_)" fill="#FFFFFF" points="12.910014241933823,22.654171854257584 12.898013204336166,23.475216776132584 12.251013845205307,22.968197733163834 11.586012929677963,23.475216776132584 11.571013540029526,22.654171854257584 10.776011556386948,22.449215799570084 11.407012075185776,21.928219705820084 11.069010823965073,21.175228983163834 11.874011129140854,21.342221170663834 12.251013845205307,20.607174783945084 12.611010640859604,21.342221170663834 13.431014150381088,21.175228983163834 13.080012410879135,21.928219705820084 13.711012929677963,22.449215799570084 " id="svg_199"/>
   <polygon clip-path="url(#SVGID_20_)" fill="#FFFFFF" points="17.405215352773666,28.447079569101334 16.589215368032455,28.139096170663834 16.225215047597885,28.940121561288834 15.872213453054428,28.139096170663834 15.045213788747787,28.447079569101334 15.35321244597435,27.624081522226334 14.561213582754135,27.250119119882584 15.35321244597435,26.891110330820084 15.045213788747787,26.060116678476334 15.872213453054428,26.369137674570084 16.225215047597885,25.565121561288834 16.589215368032455,26.369137674570084 17.405215352773666,26.060116678476334 17.109213918447495,26.891110330820084 17.89621266722679,27.253109842538834 17.109213918447495,27.624081522226334 " id="svg_200"/>
   <polygon clip-path="url(#SVGID_20_)" fill="#FFFFFF" points="15.021914571523666,17.413693338632584 15.838913053274155,17.584713846445084 16.20091161131859,16.847714334726334 16.57690915465355,17.584713846445084 17.386912435293198,17.413693338632584 17.0479117333889,18.163693338632584 17.676915258169174,18.693722635507584 16.87991437315941,18.890744119882584 16.862916082143784,19.717709451913834 16.20091161131859,19.213742166757584 15.554910749197006,19.717709451913834 15.540910810232162,18.890744119882584 14.74291142821312,18.693722635507584 15.374910444021225,18.163693338632584 " id="svg_201"/>
   <polygon clip-path="url(#SVGID_20_)" fill="#FFFFFF" points="18.287314504384995,24.080990701913834 17.645314306020737,23.762020975351334 17.021311849355698,24.080990701913834 17.13731297850609,23.377011209726334 16.62831410765648,22.876034647226334 17.331313222646713,22.764035135507584 17.645314306020737,22.136044412851334 17.976315587759018,22.764035135507584 18.667313665151596,22.876034647226334 18.178313344717026,23.377011209726334 " id="svg_202"/>
   <polygon clip-path="url(#SVGID_20_)" fill="#FFFFFF" points="20.88621434569359,21.494076639413834 20.153212636709213,21.485104471445084 19.8062125146389,22.113095194101334 19.451212972402573,21.485104471445084 18.719212621450424,21.494076639413834 19.09521397948265,20.873104959726334 18.719212621450424,20.248104959726334 19.451212972402573,20.261105448007584 19.8062125146389,19.628109842538834 20.153212636709213,20.261105448007584 20.88621434569359,20.248104959726334 20.509211629629135,20.873104959726334 " id="svg_203"/>
   <path clip-path="url(#SVGID_20_)" fill="#FFFFFF" d="m16.20081,13.81268l9.081,8.14502c0.594,-1.13501 1.025,-2.24798 1.363,-3.30401l-10.444,-9.37696l-10.423,9.37696c0.333,1.05603 0.765,2.169 1.362,3.30401l9.061,-8.14502z" id="svg_204"/>
   <path clip-path="url(#SVGID_20_)" fill="#FFFFFF" d="m30.28661,24.70654l0.491,-3.03296l-1.406,-1.26001c0.148,-0.39203 0.29,-0.78601 0.402,-1.20202c0.421,0.38 1.84,1.65301 2.043,1.83203c-0.41901,1.29297 -0.981,2.57098 -1.53,3.66296" id="svg_205"/>
   <path clip-path="url(#SVGID_20_)" fill="#FFFFFF" d="m29.60751,25.71838c-0.138,-0.12396 -0.332,-0.29895 -0.555,-0.49499c0.003,-0.00397 0.005,-0.00696 0.005,-0.00995c0.32,-0.54401 0.624,-1.09802 0.89,-1.67603l-0.34,2.18097z" id="svg_206"/>
   <path clip-path="url(#SVGID_20_)" fill="#FFFFFF" d="m0.60211,21.04339c0.201,-0.17797 1.624,-1.45397 2.032,-1.83197c0.129,0.41901 0.271,0.80903 0.417,1.198l-1.408,1.26502l0.488,3.02496c-0.552,-1.09595 -1.114,-2.375 -1.529,-3.65601" id="svg_207"/>
   <path clip-path="url(#SVGID_20_)" fill="#FFFFFF" d="m2.80501,25.71838l-0.336,-2.18695c0.268,0.57898 0.575,1.138 0.899,1.68799c-0.218,0.19299 -0.426,0.37701 -0.563,0.49896" id="svg_208"/>
   <path clip-path="url(#SVGID_20_)" fill="#FFFFFF" d="m28.23911,25.62488c-2.603,4.14703 -6.274,7.17901 -10.625,8.77301c0,0 -1.254,0.45404 -1.413,0.51501c-0.142,-0.06097 -1.396,-0.51599 -1.396,-0.51599c-4.35,-1.59198 -8.021,-4.625 -10.627,-8.77502c-0.742,-1.19098 -1.383,-2.48096 -1.906,-3.81598c0.225,-0.20099 1.577,-1.42401 1.979,-1.784c0.546,1.53497 1.214,2.97699 2.034,4.27899c2.311,3.67798 5.54,6.36402 9.369,7.76398c0.003,0 0.547,0.19702 0.547,0.19702l0.563,-0.19702c3.828,-1.39795 7.061,-4.086 9.36,-7.76398c0.832,-1.30798 1.5,-2.75 2.045,-4.27899c0.388,0.35999 1.751,1.58301 1.978,1.784c-0.533,1.354 -1.176,2.64398 -1.908,3.81897" id="svg_209"/>
   <path clip-path="url(#SVGID_20_)" fill="#006CAB" d="m5.01151,24.26123l0.413,-0.45801l-0.036,-0.13898c-0.078,-0.07501 -0.153,-0.15002 -0.228,-0.23602c-0.427,0.07599 -1.101,0.18402 -1.403,0.198l-0.08,-0.091l-0.08,0.04498c0.042,0.07001 0.08,0.14105 0.118,0.21203c0.044,0.08301 0.087,0.17103 0.131,0.25397l0.078,-0.047l-0.035,-0.12298l0.445,-0.10199l0.238,0.41901c-0.082,0.10296 -0.231,0.24896 -0.32,0.33398l-0.087,-0.10101l-0.085,0.04699c0.059,0.10401 0.12,0.20404 0.181,0.30903c0.053,0.09698 0.109,0.20001 0.162,0.302l0.086,-0.04901l-0.041,-0.12299c0.08,-0.11499 0.348,-0.42798 0.543,-0.651m-0.493,-0.52203l0.57,-0.11799l0.002,0.00501l-0.392,0.43402l-0.18,-0.32104z" id="svg_210"/>
   <path clip-path="url(#SVGID_20_)" fill="#006CAB" d="m7.03931,26.39667l0.079,-0.05799c-0.054,-0.07196 -0.11,-0.14197 -0.162,-0.21399c-0.053,-0.07098 -0.101,-0.14502 -0.151,-0.21698l-0.083,0.05597l0.062,0.12604c-0.207,0.17096 -0.744,0.57098 -0.744,0.57098l-0.003,-0.00201c0.135,-0.37701 0.294,-0.81201 0.435,-1.20502c-0.05,-0.06695 -0.099,-0.12695 -0.147,-0.19494c-0.045,-0.06702 -0.087,-0.13306 -0.131,-0.20301l-0.075,0.05799l0.057,0.125c-0.095,0.086 -0.198,0.16601 -0.325,0.255l-0.357,0.25696c-0.131,0.09204 -0.236,0.16205 -0.349,0.22504l-0.099,-0.09803l-0.075,0.05701c0.052,0.07098 0.105,0.14002 0.156,0.21503c0.048,0.07196 0.097,0.14398 0.15,0.21899l0.078,-0.05804l-0.061,-0.12696c0.206,-0.17102 0.515,-0.39099 0.759,-0.57l0.002,0.00201c-0.155,0.39697 -0.299,0.80896 -0.457,1.22699c0.037,0.04401 0.074,0.09198 0.108,0.14002c0.036,0.04296 0.066,0.09594 0.09,0.13299c0.116,-0.09503 0.268,-0.20904 0.442,-0.33905l0.345,-0.25195c0.131,-0.09101 0.241,-0.16101 0.353,-0.22705l0.103,0.099z" id="svg_211"/>
   <path clip-path="url(#SVGID_20_)" fill="#006CAB" d="m7.13711,27.58307c-0.351,0.315 -0.311,0.78705 -0.036,1.08301c0.188,0.20404 0.394,0.32702 0.739,0.35504l0.027,-0.17701c-0.201,-0.02703 -0.342,-0.10601 -0.433,-0.21301c-0.212,-0.22998 -0.224,-0.55603 0.033,-0.79602c0.259,-0.24097 0.539,-0.16101 0.706,0.01801c0.08,0.08398 0.146,0.22198 0.171,0.341l-0.079,0.09399l0.07,0.08204c0.085,-0.07502 0.216,-0.14905 0.322,-0.18799c-0.075,-0.18201 -0.164,-0.32001 -0.297,-0.46002c-0.364,-0.391 -0.872,-0.46802 -1.223,-0.13904" id="svg_212"/>
   <path clip-path="url(#SVGID_20_)" fill="#006CAB" d="m10.05471,29.33087c-0.411,-0.35101 -0.891,-0.29401 -1.172,0.03998c-0.31,0.38403 -0.237,0.81402 0.173,1.16003c0.426,0.35199 0.896,0.29297 1.168,-0.04199c0.329,-0.38 0.252,-0.81201 -0.169,-1.15802m-0.138,0.89697c-0.21,0.24903 -0.504,0.32404 -0.726,0.14105c-0.221,-0.18304 -0.2,-0.48303 0.013,-0.73199c0.213,-0.25305 0.506,-0.328 0.725,-0.14203c0.209,0.18103 0.187,0.48102 -0.012,0.73297" id="svg_213"/>
   <path clip-path="url(#SVGID_20_)" fill="#006CAB" d="m12.21621,30.91003c-0.089,-0.05499 -0.182,-0.10803 -0.273,-0.16198c-0.093,-0.05603 -0.185,-0.10602 -0.273,-0.16102c-0.075,-0.04699 -0.15,-0.10003 -0.226,-0.14898l-0.053,0.08398l0.104,0.09497c-0.058,0.11701 -0.121,0.22602 -0.207,0.36103l-0.214,0.36798c-0.086,0.13104 -0.159,0.23401 -0.24,0.33801l-0.131,-0.052l-0.051,0.08398c0.103,0.06201 0.203,0.12 0.303,0.18305c0.098,0.05896 0.192,0.12597 0.283,0.19l0.05,-0.08301l-0.095,-0.09399c0.049,-0.11701 0.111,-0.23102 0.198,-0.36505l0.074,-0.11597l0.096,0.06201c0.025,0.22498 0.048,0.60199 0.064,0.87c0.137,0.065 0.281,0.13598 0.413,0.22101l0.052,-0.08204l-0.042,-0.05902c-0.025,-0.10296 -0.097,-0.64197 -0.119,-0.79095c0.208,0.08899 0.424,0.05298 0.531,-0.12799c0.105,-0.172 0.108,-0.38904 -0.244,-0.61402m-0.107,0.40796c-0.095,0.14905 -0.246,0.14301 -0.429,0.02802c-0.044,-0.02497 -0.081,-0.05298 -0.109,-0.07898l0.065,-0.107c0.068,-0.10803 0.131,-0.19903 0.174,-0.25299c0.056,0.02301 0.099,0.047 0.182,0.09796c0.156,0.09504 0.188,0.19904 0.117,0.31299" id="svg_214"/>
   <path clip-path="url(#SVGID_20_)" fill="#006CAB" d="m14.43571,32.09241l-0.112,-0.09198c-0.106,-0.01398 -0.211,-0.02802 -0.325,-0.05597c-0.303,0.32196 -0.768,0.80694 -1.011,1.00097l-0.123,-0.02697l-0.038,0.08899c0.073,0.03296 0.151,0.06299 0.225,0.09698c0.086,0.03803 0.177,0.08197 0.261,0.12299l0.044,-0.08899l-0.107,-0.07599l0.298,-0.34601l0.43,0.198c-0.006,0.13202 -0.035,0.33398 -0.059,0.45697l-0.13,-0.03095l-0.039,0.08698c0.11,0.04901 0.222,0.09198 0.332,0.14203c0.1,0.04797 0.205,0.099 0.309,0.14795l0.039,-0.08997l-0.103,-0.07599c-0.005,-0.13702 0.02,-0.54803 0.049,-0.84503l0.06,-0.61401zm-0.439,0.64099l-0.332,-0.15094l0.388,-0.43506l0.005,0.00201l-0.061,0.58399z" id="svg_215"/>
   <path clip-path="url(#SVGID_20_)" fill="#006CAB" d="m18.74351,33.25635c-0.065,-0.11298 -0.118,-0.22699 -0.176,-0.37299l-0.17,-0.39197c-0.065,-0.14801 -0.113,-0.26501 -0.153,-0.388l0.119,-0.078l-0.042,-0.09003c-0.109,0.04999 -0.215,0.10102 -0.32,0.14502c-0.109,0.047 -0.218,0.08899 -0.328,0.13703l0.041,0.086l0.138,-0.03003c0.063,0.11297 0.12,0.22802 0.186,0.37298l0.174,0.396c0.066,0.14404 0.109,0.26105 0.153,0.38501l-0.116,0.078l0.038,0.08899c0.111,-0.04901 0.215,-0.09997 0.316,-0.14697c0.097,-0.047 0.208,-0.08801 0.319,-0.13404l-0.042,-0.08795l-0.137,0.03095z" id="svg_216"/>
   <path clip-path="url(#SVGID_20_)" fill="#006CAB" d="m21.45741,31.7818c-0.079,-0.107 -0.149,-0.21295 -0.233,-0.34796l-0.21,-0.37299c-0.082,-0.13299 -0.142,-0.24402 -0.197,-0.36102l0.107,-0.09302l-0.052,-0.08496c-0.088,0.05798 -0.176,0.11395 -0.267,0.16595c-0.087,0.05201 -0.183,0.10401 -0.273,0.15601c0.051,0.19403 0.202,0.94 0.233,1.09705c-0.169,-0.11701 -0.715,-0.58405 -0.854,-0.72004c-0.089,0.05603 -0.177,0.11103 -0.263,0.16303c-0.089,0.052 -0.182,0.09997 -0.272,0.15198l0.051,0.08099l0.122,-0.04102l0.107,0.17603c0.104,0.17603 0.43,0.75403 0.51,0.91797l-0.103,0.09406l0.049,0.08099c0.076,-0.04504 0.149,-0.09302 0.225,-0.138c0.077,-0.04804 0.157,-0.09003 0.236,-0.13202l-0.05,-0.08398l-0.133,0.04998c-0.078,-0.10498 -0.149,-0.21197 -0.233,-0.34802l-0.123,-0.21198c-0.102,-0.18603 -0.178,-0.31598 -0.214,-0.38098l0.003,-0.00305c0.547,0.461 0.845,0.70105 0.994,0.83203l0.204,-0.11999l-0.261,-1.27704l0.003,-0.00195c0.042,0.06298 0.124,0.19299 0.235,0.37695l0.128,0.21002c0.083,0.138 0.138,0.25104 0.186,0.36902l-0.091,0.08996l0.043,0.086c0.09,-0.06195 0.189,-0.12298 0.292,-0.18499c0.101,-0.06 0.206,-0.11701 0.308,-0.17701l-0.048,-0.08294l-0.159,0.06494z" id="svg_217"/>
   <path clip-path="url(#SVGID_20_)" fill="#006CAB" d="m22.92131,30.69769c-0.091,-0.09595 -0.177,-0.18994 -0.28,-0.31396l-0.198,-0.24298c-0.084,-0.10004 -0.179,-0.23603 -0.253,-0.34803c0.025,-0.03997 0.069,-0.08801 0.116,-0.13202c0.15,-0.12201 0.296,-0.109 0.396,0.01502c0.103,0.12201 0.13,0.27197 -0.022,0.39502c-0.032,0.02496 -0.065,0.04797 -0.096,0.06299l0.073,0.18499c0.064,-0.03302 0.131,-0.08001 0.193,-0.12902c0.323,-0.258 0.331,-0.586 0.154,-0.80298c-0.17,-0.206 -0.407,-0.22303 -0.673,-0.00598c-0.052,0.05401 -0.126,0.11596 -0.221,0.19397c-0.09,0.08203 -0.18,0.15203 -0.25,0.20703c-0.068,0.05395 -0.155,0.11895 -0.245,0.19397l0.061,0.07501l0.124,-0.06598c0.092,0.091 0.176,0.18701 0.28,0.30701l0.256,0.33795c0.103,0.12305 0.177,0.22503 0.251,0.33203l-0.09,0.10602l0.061,0.07696c0.091,-0.07898 0.179,-0.15399 0.272,-0.22699c0.089,-0.07202 0.184,-0.14001 0.324,-0.25097l-0.064,-0.07502l-0.169,0.10596z" id="svg_218"/>
   <path clip-path="url(#SVGID_20_)" fill="#006CAB" d="m25.31861,28.45947c-0.133,-0.04303 -0.518,-0.20001 -0.776,-0.33099l-0.565,-0.26801l-0.123,0.07398c-0.05,0.091 -0.101,0.18701 -0.164,0.28704c0.202,0.391 0.501,0.99897 0.607,1.292l-0.069,0.10296l0.072,0.06702c0.053,-0.05701 0.107,-0.12097 0.166,-0.17499c0.065,-0.06799 0.137,-0.13598 0.205,-0.20501l-0.069,-0.068l-0.108,0.07599l-0.228,-0.39697l0.341,-0.34802c0.122,0.04998 0.29,0.14801 0.398,0.21099l-0.073,0.10999l0.071,0.07001c0.083,-0.08698 0.163,-0.17701 0.246,-0.263c0.082,-0.08197 0.163,-0.16101 0.246,-0.23798l-0.072,-0.06799l-0.105,0.07098zm-1.137,0.29297l-0.277,-0.51599l0.002,-0.00598l0.533,0.25799l-0.258,0.26398z" id="svg_219"/>
   <path clip-path="url(#SVGID_20_)" fill="#006CAB" d="m27.00251,26.37903c-0.104,0.01196 -0.658,0.03497 -0.809,0.03997c0.108,-0.195 0.093,-0.414 -0.08,-0.54498c-0.148,-0.12201 -0.365,-0.143 -0.626,0.19098c-0.064,0.08502 -0.129,0.172 -0.19,0.258c-0.064,0.08599 -0.125,0.169 -0.186,0.24798c-0.058,0.07202 -0.115,0.14203 -0.171,0.211l0.08,0.05902l0.104,-0.09601c0.112,0.07099 0.215,0.14203 0.345,0.23999l0.347,0.26001c0.129,0.09504 0.212,0.17902 0.307,0.26899l-0.066,0.125l0.08,0.05804c0.069,-0.09399 0.14,-0.19 0.21,-0.284c0.07,-0.09204 0.146,-0.17901 0.22,-0.27301l-0.081,-0.05798l-0.1,0.09296c-0.114,-0.06598 -0.218,-0.13898 -0.348,-0.23401l-0.095,-0.086l0.063,-0.09198c0.219,-0.00501 0.602,0.01001 0.878,0.01898c0.075,-0.12897 0.159,-0.263 0.258,-0.383l-0.079,-0.05798l-0.061,0.03803zm-1.124,0.25494c-0.033,0.03803 -0.064,0.07306 -0.093,0.09802l-0.1,-0.07299c-0.1,-0.07502 -0.187,-0.14698 -0.238,-0.19098c0.03,-0.05402 0.057,-0.094 0.114,-0.172c0.11,-0.14301 0.219,-0.16803 0.324,-0.08405c0.128,0.10706 0.118,0.25403 -0.007,0.422" id="svg_220"/>
   <path clip-path="url(#SVGID_20_)" fill="#006CAB" d="m27.91251,23.7149c-0.441,-0.25598 -0.839,-0.11297 -1.117,0.35504c-0.28,0.474 -0.143,0.93 0.235,1.14899c0.418,0.25299 0.839,0.11298 1.118,-0.35602c0.28,-0.46899 0.144,-0.927 -0.236,-1.14801m0.047,1.042c-0.145,0.24603 -0.446,0.27404 -0.719,0.10601c-0.286,-0.16497 -0.408,-0.43896 -0.261,-0.68701c0.148,-0.24298 0.436,-0.268 0.72,-0.10596c0.284,0.16401 0.408,0.443 0.26,0.68696" id="svg_221"/>
   <path clip-path="url(#SVGID_20_)" fill="#006CAB" d="m16.20081,33.06769c-0.169,0 -0.318,0.15204 -0.318,0.33301c0,0.18805 0.149,0.34301 0.318,0.34301c0.189,0 0.344,-0.15496 0.344,-0.34301c0,-0.18097 -0.155,-0.33301 -0.344,-0.33301" id="svg_222"/>
   <path clip-path="url(#SVGID_20_)" fill="#006CAB" d="m3.83421,22.49115c0.182,0 0.336,-0.15497 0.336,-0.33295c0,-0.18805 -0.154,-0.34399 -0.336,-0.34399c-0.178,0 -0.33,0.15594 -0.33,0.34399c0,0.17798 0.152,0.33295 0.33,0.33295" id="svg_223"/>
   <path clip-path="url(#SVGID_20_)" fill="#006CAB" d="m28.63741,22.49115c0.187,0 0.34,-0.15497 0.34,-0.33295c0,-0.18805 -0.153,-0.34399 -0.34,-0.34399c-0.172,0 -0.33,0.15594 -0.33,0.34399c0,0.17798 0.158,0.33295 0.33,0.33295" id="svg_224"/>
  </g>
 </g>
</svg>