<?xml version="1.0" encoding="UTF-8" standalone="no"?>
<svg
   xmlns:dc="http://purl.org/dc/elements/1.1/"
   xmlns:cc="http://creativecommons.org/ns#"
   xmlns:rdf="http://www.w3.org/1999/02/22-rdf-syntax-ns#"
   xmlns:svg="http://www.w3.org/2000/svg"
   xmlns="http://www.w3.org/2000/svg"
   xmlns:sodipodi="http://sodipodi.sourceforge.net/DTD/sodipodi-0.dtd"
   xmlns:inkscape="http://www.inkscape.org/namespaces/inkscape"
   version="1.1"
   id="svg2"
   xml:space="preserve"
   width="132.10667"
   height="151.18668"
   viewBox="0 0 132.10667 151.18668"
   sodipodi:docname="Primary-Green-RGB.eps"><metadata
     id="metadata8"><rdf:RDF><cc:Work
         rdf:about=""><dc:format>image/svg+xml</dc:format><dc:type
           rdf:resource="http://purl.org/dc/dcmitype/StillImage" /></cc:Work></rdf:RDF></metadata><defs
     id="defs6" /><sodipodi:namedview
     pagecolor="#ffffff"
     bordercolor="#666666"
     borderopacity="1"
     objecttolerance="10"
     gridtolerance="10"
     guidetolerance="10"
     inkscape:pageopacity="0"
     inkscape:pageshadow="2"
     inkscape:window-width="640"
     inkscape:window-height="480"
     id="namedview4" /><g
     id="g10"
     inkscape:groupmode="layer"
     inkscape:label="ink_ext_XXXXXX"
     transform="matrix(1.3333333,0,0,-1.3333333,0,151.18667)"><g
       id="g12"
       transform="scale(0.1)"><path
         d="M 663.195,634.867 619.359,377.301 c -9.054,-46.348 -39.574,-58.899 -66.671,-58.899 H 349.656 l 85.555,471.766 c -85.43,39.055 -172.645,64.578 -242.109,64.578 -66.082,0 -119.7387,-17.875 -155.4223,-60.699 C 12.5313,763.613 0.00390625,726.039 0.00390625,681.348 0.00390625,547.23 105.492,361.129 286.043,209.32 447,75.1289 624.055,0 752.934,0 c 64.296,0 116.16,19.6797 150.203,58.9805 26.797,30.4101 37.48,69.8395 37.48,114.5315 0,130.32 -106.25,313.015 -277.422,461.355"
         style="fill:#24b048;fill-opacity:1;fill-rule:nonzero;stroke:none"
         id="path14" /><path
         d="m 298.66,1133.86 c -32.226,0 -59.015,-21.63 -66.152,-55.58 L 203.941,922.797 H 459.254 L 349.656,318.402 h 203.032 c 27.097,0 57.617,12.551 66.671,58.899 l 92.852,545.496 h 183.641 c 32.351,0 59.074,21.488 66.242,55.406 l 28.66,155.657 H 298.66"
         style="fill:#084e30;fill-opacity:1;fill-rule:nonzero;stroke:none"
         id="path16" /></g></g></svg>
