<svg id="Layer_1" data-name="Layer 1" xmlns="http://www.w3.org/2000/svg" viewBox="0 0 232.29 221.24"><defs><style>.cls-1{fill:#d71638;}</style></defs><title>Woodside - Mono - Vertical</title><polygon class="cls-1" points="49.46 178.81 43.91 178.81 36.8 210.68 27.53 179.07 27.45 178.81 21.9 178.81 12.95 210.59 5.89 179.09 5.83 178.81 0 178.81 9.43 220.1 9.49 220.38 15.72 220.38 24.62 188.25 33.71 220.12 33.78 220.38 39.86 220.38 49.4 179.06 49.46 178.81"/><path class="cls-1" d="M195.52,204.84a14.66,14.66,0,0,1-1.87,7.89,6.63,6.63,0,0,1-2.56,2.38A8.55,8.55,0,0,1,187,216a5.61,5.61,0,0,1-3.34-1,6,6,0,0,1-1.67-1.79,11.7,11.7,0,0,1-1.47-3.91,21.89,21.89,0,0,1-.42-4.34,13.39,13.39,0,0,1,1.68-7,6.36,6.36,0,0,1,2.25-2.22,6.8,6.8,0,0,1,3.48-.85,8.22,8.22,0,0,1,3.7.8,7.21,7.21,0,0,1,3.26,3.58,13.54,13.54,0,0,1,1.05,5.49m5.58,8.23V178.63h-5.46v14.5a11.77,11.77,0,0,0-2.73-1.87,13.52,13.52,0,0,0-6-1.4,12.1,12.1,0,0,0-5.83,1.39,12,12,0,0,0-5.23,6,20.88,20.88,0,0,0-1.54,8.12,19.53,19.53,0,0,0,2.81,10.5,11.42,11.42,0,0,0,3.94,3.77,11.73,11.73,0,0,0,5.85,1.46,12.42,12.42,0,0,0,5.91-1.44,12,12,0,0,0,2.87-2.1l.11,2.72h5.61l-.14-2.25c-.1-1.54-.21-3.3-.21-5"/><path class="cls-1" d="M65.51,215a8.12,8.12,0,0,1-7.62,0,8.54,8.54,0,0,1-3.47-4.09,13.68,13.68,0,0,1-1.12-5.49,12.93,12.93,0,0,1,2-7.12,7.7,7.7,0,0,1,2.58-2.45,8.12,8.12,0,0,1,7.62,0A8.51,8.51,0,0,1,69,200a13.87,13.87,0,0,1,1.12,5.48,13,13,0,0,1-2,7.12A7.76,7.76,0,0,1,65.51,215M68,191.19a15,15,0,0,0-12.59,0,13.21,13.21,0,0,0-6,6,18.22,18.22,0,0,0-1.89,8.26A17.21,17.21,0,0,0,51,216.08a12.56,12.56,0,0,0,4.45,3.62,15.15,15.15,0,0,0,12.59,0,13.26,13.26,0,0,0,6-6,18.26,18.26,0,0,0,1.89-8.27,17.23,17.23,0,0,0-3.41-10.64A12.57,12.57,0,0,0,68,191.19"/><path class="cls-1" d="M100.89,205.61a13.15,13.15,0,0,1-2,7.12,7.79,7.79,0,0,1-2.58,2.45,8.06,8.06,0,0,1-7.63,0,8.47,8.47,0,0,1-3.47-4.08,13.9,13.9,0,0,1-1.13-5.49,13.26,13.26,0,0,1,2-7.12A7.71,7.71,0,0,1,88.68,196a8.1,8.1,0,0,1,7.61,0,8.51,8.51,0,0,1,3.48,4.09,13.87,13.87,0,0,1,1.12,5.48m-2.12-14.26a15.12,15.12,0,0,0-12.58,0,13.14,13.14,0,0,0-6,6,18.19,18.19,0,0,0-1.89,8.26,17.24,17.24,0,0,0,3.41,10.65,12.82,12.82,0,0,0,4.45,3.61,15.12,15.12,0,0,0,12.58,0,13.19,13.19,0,0,0,6-6,18.19,18.19,0,0,0,1.9-8.26A17.19,17.19,0,0,0,103.23,195a12.64,12.64,0,0,0-4.46-3.62"/><path class="cls-1" d="M130.28,205a14.6,14.6,0,0,1-1.88,7.9,6.75,6.75,0,0,1-2.55,2.38,8.67,8.67,0,0,1-4.09.91,5.64,5.64,0,0,1-3.35-1,6.27,6.27,0,0,1-1.67-1.79,11.9,11.9,0,0,1-1.47-3.91,22.21,22.21,0,0,1-.41-4.34,13.46,13.46,0,0,1,1.67-7,6.5,6.5,0,0,1,2.24-2.22,6.86,6.86,0,0,1,3.49-.85,8,8,0,0,1,3.7.81,7.17,7.17,0,0,1,3.26,3.58,13.49,13.49,0,0,1,1.06,5.48m5.58,8.23V178.74h-5.47v14.5a11.74,11.74,0,0,0-2.73-1.86,13.35,13.35,0,0,0-6-1.4,12.17,12.17,0,0,0-5.84,1.39,11.92,11.92,0,0,0-5.22,6,20.88,20.88,0,0,0-1.54,8.12,19.53,19.53,0,0,0,2.81,10.5,11.23,11.23,0,0,0,9.79,5.24,12.31,12.31,0,0,0,8.79-3.55l.11,2.73h5.6l-.11-1.94c-.11-1.64-.23-3.51-.23-5.3"/><path class="cls-1" d="M157.65,203.8c-2.33-.8-4.41-1.32-6.28-1.78-1.2-.3-2.24-.56-3.12-.85a6.22,6.22,0,0,1-2.32-1.12,2,2,0,0,1-.46-.65,2.3,2.3,0,0,1-.16-.92,2.91,2.91,0,0,1,.39-1.52,3.63,3.63,0,0,1,1.88-1.39,8.67,8.67,0,0,1,3-.49,8.27,8.27,0,0,1,4.08.87A3.48,3.48,0,0,1,155.9,197a3.62,3.62,0,0,1,.57,1.7l.08.95h5.75l-.09-1.12a9.52,9.52,0,0,0-1.17-4.08,8.17,8.17,0,0,0-4.27-3.55,16,16,0,0,0-5.85-1,14.74,14.74,0,0,0-7.56,1.86,7.87,7.87,0,0,0-2.74,2.73,8,8,0,0,0-1.07,4.13,7.38,7.38,0,0,0,.91,3.68,6.82,6.82,0,0,0,1.68,1.92,11.19,11.19,0,0,0,3.37,1.77,37.9,37.9,0,0,0,3.78,1.06l.82.17a26.18,26.18,0,0,1,5.09,1.43,4.49,4.49,0,0,1,1.62,1.19,2.85,2.85,0,0,1,.55,1.77,3.77,3.77,0,0,1-.51,2,4.61,4.61,0,0,1-2.29,1.85,10.82,10.82,0,0,1-8.17-.34,3.87,3.87,0,0,1-1.41-1.3,4.29,4.29,0,0,1-.64-2.07l-.06-1H138.6v1.06a9,9,0,0,0,1.15,4.37,9.3,9.3,0,0,0,4.62,3.87,15.24,15.24,0,0,0,5.87,1.12,16,16,0,0,0,8.72-2.35,9.51,9.51,0,0,0,3-3.15,9.09,9.09,0,0,0,1.15-4.54,7.58,7.58,0,0,0-1.5-4.56,8.24,8.24,0,0,0-4-2.84"/><rect class="cls-1" x="165.66" y="178.83" width="6.02" height="6.2"/><rect class="cls-1" x="165.93" y="190.89" width="5.47" height="29.61"/><path class="cls-1" d="M213,197.39a6.81,6.81,0,0,1,2.32-1.8,7.33,7.33,0,0,1,3.18-.67,8.86,8.86,0,0,1,3.41.62,6.82,6.82,0,0,1,3.28,2.9,10.4,10.4,0,0,1,1.24,3.71H210.84a10.22,10.22,0,0,1,2.13-4.76m13.34,12.91a7.44,7.44,0,0,1-2.5,4,7.13,7.13,0,0,1-4.56,1.63,9.52,9.52,0,0,1-4-.77,7.25,7.25,0,0,1-3.52-3.46,12,12,0,0,1-1.14-4.49h21.66v-1c0-4.86-1-8.73-3.09-11.51a11.2,11.2,0,0,0-4.36-3.6,15.25,15.25,0,0,0-6.43-1.29,13.22,13.22,0,0,0-6,1.35,13.09,13.09,0,0,0-5.76,5.93,18.84,18.84,0,0,0-1.87,8.36A17.92,17.92,0,0,0,208,216.18a12,12,0,0,0,4.2,3.56,13.24,13.24,0,0,0,5.95,1.33,14.6,14.6,0,0,0,8.88-2.54,13.8,13.8,0,0,0,4.85-7.84l.1-.39Z"/><path class="cls-1" d="M199.85,24.85c-9.16-7.69-40,19.71-52.56,31.89,3.32,23.38-1.06,42.11-12.75,60a51.58,51.58,0,0,1-3.92,5.25c12.5,1.58,31.26-9.83,54-41.9,12.69-17.88,26.15-46.1,15.2-55.28"/><path class="cls-1" d="M98.57,136.15C79.45,132.38,75.85,111.26,77,91.2c0-.67,0-1.35.07-2C61,76.7,39.09,62.14,32,68.8c-10.89,10.27,4.93,39,19.31,56.91,32.45,40.46,56.25,47.09,67.66,36.15,3.76-3.6,6.83-13.16-1.74-29.21l-.46.24c-7.3,3.53-14.17,4.05-18.22,3.26"/><path class="cls-1" d="M147.29,56.74h0C142.9,29.84,125.06-.7,111,0,96.28.75,78.56,53.5,77,89.17c9,7,16.2,13.42,17.7,14.91C106,115.23,113,124.73,117.25,132.65A42.55,42.55,0,0,0,130.62,122a15.71,15.71,0,0,1-8.4-3.68C116.58,113.54,111.63,96,142.1,62c.65-.73,2.51-2.64,5.19-5.22"/></svg>